<?xml version="1.0" encoding="UTF-8"?>
<!DOCTYPE svg PUBLIC "-//W3C//DTD SVG 1.1//EN" "http://www.w3.org/Graphics/SVG/1.1/DTD/svg11.dtd">
<!-- Creator: CorelDRAW 2018 (64-Bit Evaluation Version) -->
<svg xmlns="http://www.w3.org/2000/svg" xml:space="preserve" width="3.33333in" height="3.33333in" version="1.1" style="shape-rendering:geometricPrecision; text-rendering:geometricPrecision; image-rendering:optimizeQuality; fill-rule:evenodd; clip-rule:evenodd"
viewBox="0 0 3333.33 3333.33"
 xmlns:xlink="http://www.w3.org/1999/xlink">
 <defs>
  <style type="text/css">
   <![CDATA[
    .fil0 {fill:#735974}
   ]]>
  </style>
 </defs>
 <g id="Layer_x0020_1">
  <metadata id="CorelCorpID_0Corel-Layer"/>
  <g id="_1801941341520">
   <path class="fil0" d="M2453.63 860.3c-2.88,10.78 -14.24,26.75 -20.21,36.48 -4.52,7.38 -23.78,34.61 0.21,23.52 -1.96,7.35 -3.9,15.9 -12.54,17 -11.33,1.44 0.36,-11.45 -14.71,8.76 -7.07,9.48 -12.38,10.44 -28.62,21.73 -16.75,11.65 1.19,-0.67 -10.8,4.32 -5.85,2.44 0.8,-4.98 -8.09,6.49 -15.75,20.35 -29.82,45.78 -58.57,65.03 1.47,-17.63 9.52,-18.5 10,-40 -16.48,3.84 -12.94,7.09 -21.99,21.34 -6.37,10.02 -10.98,16.45 -17.34,25.99 -12.54,18.81 -22.44,37.13 -40.67,49.33 0,-26.28 2.25,-13.44 6.67,-30 -15.51,4.14 -7.24,8.38 -21.45,11.92 -13.07,3.25 -9.41,-3.04 -28.55,1.42 -4.83,-20.75 -1.58,-11.98 1.3,-21.75 3.06,-10.41 2.04,-16.62 2.04,-28.25 -45.17,30.24 -51.2,-4.58 -49.44,-12.27 2,-8.8 14.48,-17.69 21.25,-25.92 11.69,-14.2 13.78,-8.82 28.19,-18.48 -3.56,-8.82 6.86,-6.22 -13.33,-6.67 1.21,-14.57 -2.75,-6.67 4.62,-10.71 11.94,-6.56 -0.83,5.57 9.69,0.37 10.73,-5.31 -0.64,-8.72 15.69,-19.65 7.39,15.39 -3.33,12.43 -3.33,36.67 16.43,4.39 2.67,6.67 26.67,6.67 3.27,-12.24 12.02,-24.64 26.34,-21.85 10.37,2.02 5.47,-8.87 6.99,8.52 12.43,-8.32 4.29,-9.57 23.33,-10 7.23,15.07 -5.19,17.83 10,23.33 0,-36.07 0.63,-33.02 11.74,-34.41 29.13,-3.62 -3.55,3.71 25.46,-11.72 0.96,-0.51 7.73,-3.04 9.46,-3.88 3.98,8.61 2.37,6.5 0,16.67 20.87,-0.46 24.13,-5.56 30,-16.67 -26.5,0 -33.21,-30.72 -83.33,-6.67l0 -20c-10.34,-2.41 -9.65,-4.26 -20,-6.67 1.07,-12.85 3.33,-13.13 3.33,-30 -10.96,2.93 -4.79,5.7 -16.67,10 -0.68,-0.47 -1.85,-1.8 -2.19,-1.14 -0.11,0.22 -16.99,-4.38 -21.14,-22.19 -8.26,13.02 2.39,9.11 -9.93,16.39 -12.75,7.53 -5.15,-8.88 -16.74,6.94 -11.04,-2.94 -14.01,-12.06 -17.32,-2.76 -4.33,12.18 9.83,3.63 0.65,22.76 -22.2,10.65 -34.4,-18.27 -53.33,10 11.15,5.35 15.52,1.31 26.67,6.67 -9.57,18.09 -8.99,10.26 -40,26.67 -5.31,-7.93 -4.03,-3.47 -6.67,-13.33 -14.06,0 -26.79,0.28 -36.65,-3.35 -5.39,-1.98 -8.07,-2.74 -11.47,-8.53 -2.88,-4.9 -0.87,-2.18 -2.7,-7.3 -2.05,-5.74 -0.3,-4 -2.51,-7.48 -1.83,7.85 -3.11,9.84 -3.33,20 -9.68,-7.09 -6.28,0.46 -6.67,-16.67 -13.42,3.59 -5.07,6.99 -13.33,3.33 15.57,-29.41 4.78,-20 -23.33,-20 -1.29,15.5 -7.47,16.31 -23.33,16.67 -4.06,17.43 -1.47,5.69 0,23.33l-6.67 0c0,-31.87 2.5,-15.5 8.32,-35.01 7.14,-23.93 -6.72,1.39 12.87,-33.8 14.99,-26.92 8.43,-52.28 35.47,-54.53 1.11,13.33 1.98,14.13 10,20 9.11,-13.61 6.67,-7.98 6.67,-30 -13.9,-5.74 0.57,2.41 -13.33,-3.33 3.79,-7.16 6.35,-2.41 2.84,-16.17l-2.84 -23.83 -16.67 20c4.85,2.72 3.53,1.61 10,3.33 -1.63,19.58 -5.93,13.82 -14.96,25.04 -9.46,11.75 -2.82,16.73 -21.7,18.3 -1.48,-17.44 3.18,-6.02 -6.67,-10 -5.92,11.19 -12.67,17.87 0,26.67 -8.65,16.35 -22.11,51.98 -23.33,66.67l-6.67 0c0,-16.7 -0.11,-13.55 -6.67,-23.33 -41.43,21.92 -10.43,37.37 -46.61,56.72 -3.17,1.69 1.67,0.24 -6.72,3.28 1.04,-12.46 11.31,-34.09 -6.67,-26.67 -2.16,-8.15 1.48,-4.51 -6.67,-6.67 -11.93,11.32 -2.19,4.44 -8.47,18.2 -8.03,17.57 -13.99,5.01 -24.41,18.92l-6 10.67c-9.17,14.37 -10.39,11.6 -17.78,12.22 0.74,-8.91 1.28,-8.36 1.81,-13.87 0.09,-0.99 0.17,-3.65 0.29,-4.54 0.07,-0.56 0.13,-1.54 0.22,-2.07l14.34 -22.85 10.74 -9.63c5.34,-9.44 2.89,-9.46 -0.74,-17.04 -8.73,5.85 -6.89,1.69 -10,13.33l-6.67 0c-0.35,-15.76 3.39,-13.09 -10,-16.67l-10.24 36.42c-4.69,14.37 -9.89,25.47 -23.09,26.91 14.08,-29.34 -6.45,-29.89 -6.67,-30 -4.32,9.34 3.24,20.05 -4.1,32.7 -8.24,14.22 -18.92,4.22 -29.24,-2.7 -10.24,7.5 -5.38,-2.15 -6.67,13.33 -20.04,-1.75 -6.56,-0.03 -6.11,-7.71l0.51 -4.5c0,-0.06 -0.96,-7.33 -1.07,-7.79 -11.7,0.97 -9.17,0.2 -15.63,7.7 -8.19,9.5 -11.85,26.68 -12.3,27.69 -3.46,7.75 -9.62,12.17 -18.73,14.61l0 -10c-12.85,-1.07 -10.75,-3.33 -26.67,-3.33 5.77,24.77 17.43,10.01 3.33,36.67 -16.08,-1.34 -22.15,-7.42 -33.33,-13.33 -6.3,27.06 -2.31,34.91 -8.78,41.19 -5.8,5.63 -5.11,4.69 -14.56,5.48l0 -16.67c-9.72,5.14 -20.28,12.25 -33.33,13.33 -3.04,-11.4 -1.21,-2.27 -2.92,-7.07l-3.75 -19.59c-13.1,-0.3 -7.82,0.91 -16.67,-3.33 -3.2,13.76 -10.28,39.85 -23.33,43.33l6.65 -23.35c7.55,-19.26 15.35,-18.57 6.69,-36.65 -26.44,7.06 -18.91,36.71 -24.33,55.51 -14.21,49.26 -19.35,26.8 -35.67,51.16 -26.45,-17.71 -9.66,-3.11 -45.3,-1 -21.72,1.29 -30.45,16.68 -38.03,31 22.38,-1.86 4.29,-8.14 26.67,-10 -1.89,22.68 -12.79,14.3 -30.85,19.14 -15.33,4.11 -4.86,2.1 -15.54,7.79 -0.66,0.35 -1.48,0.85 -2.16,1.17l-7.29 2.71c-4.06,1.23 -5.51,1.28 -10.82,2.52l0 -16.67 -10 0c-1.87,17.07 3.57,5.22 -13.33,13.33 -6.9,-13.04 -3.31,-16.11 -20,-20 -1.83,7.85 -3.11,9.84 -3.33,20l-29.19 3.01c-15.75,3.79 -41.4,-13.99 -37.55,8.39 0.52,3.01 1.61,6.29 1.67,6.53 1.79,8.7 1.74,9.17 1.74,18.74 -15.64,-3.64 -12.46,-6.05 -23.33,-13.33 2.28,10.74 0.71,9.48 -6.01,17.04 -5.82,6.54 -9.42,12.8 -13.99,19.63 -8.85,-4.24 -3.57,-3.04 -16.67,-3.33 5.03,-18.84 11.59,-5.78 13.33,-26.67 -21.03,1.75 -26.26,15.13 -26.67,33.33l-6.67 0c0,-17.75 0.32,-21.92 -16.67,-23.33l0 -10c20.12,0 1.44,-2.96 28.12,-2.33 8.06,0.19 48.54,-19.97 48.54,-54.33 -30.51,0 -18.15,-2.21 -33.33,-13.33 0.37,16.47 2.97,6.3 5.05,35.3 0.22,3.15 1.48,8.69 1.62,14.7 -15.89,-7.62 -10.75,-1.78 -25.5,1.3 -21,4.37 -1.83,-2.74 -24.5,-4.63 -3.11,11.65 -1.27,7.49 -10,13.33 -10.3,-7.55 -4.49,-8.51 -16.67,-16.67 -4.63,10 -1.09,6.94 0,20l-16.09 -13.95c-13.3,24.46 -16.09,24.85 -41.59,33.15l-19.56 3.91c-8.03,1.92 4.34,2.14 -12.76,3.56l0 -20 -16.67 0c-0.8,35.76 -12.7,28.07 -18.62,29.02 -9.1,1.46 -5.3,2.12 -14.71,4.31 -3.1,-11.62 -3.07,-12.2 -16.67,-13.33 3.65,17.22 5.88,4.8 -6.93,16.12 -7.2,6.38 -8.74,8.45 -9.74,20.54 -42.44,0 -14.57,-35.65 -43.33,-43.33 -2.5,5.2 -1.99,6.67 -3.41,10.1 -10.94,26.53 -9.64,2.5 -3.26,29.9 -19.5,-5.21 -25.02,-6.84 -26.67,-26.67 -16.2,11.87 2.69,-0.76 -11.78,24.89 -4.73,8.39 -1.31,-4.94 -4.88,8.45 19.37,-4.51 20.22,7.06 13.72,23.42 -3.62,9.12 0.31,4.52 -7.06,9.91 -3.11,-11.65 -1.27,-7.49 -10,-13.33 -6.57,9.8 -6.84,9.76 -10,23.33 -22.95,0 -12.54,0.54 -26.67,10 -5.39,-11.24 -2.52,-11.26 3.33,-20 -9.76,-2.28 -13.63,-4.33 -17.29,-13.17 -6.94,-16.8 -0.22,-7.86 3.95,-23.5 -6.35,-3.04 -17.8,-5.93 -26.67,-6.67 -3.83,14.32 -3.35,10.38 -16.67,3.33 -2.78,5.61 -3.07,5.85 -6.67,10l0 23.33 10 0 0 -16.67c29.38,6.85 30.67,17.98 33.33,50 -34.41,2.86 -23.33,43.96 -23.33,46.67 -0.45,-0.71 -0.79,-2.86 -0.98,-2.34 -1.94,5.21 -1.78,-3.74 -2.26,-4.41 -4.96,-6.87 2.19,-2.98 -6.75,-6.58 -0.6,0.52 -1.65,0.4 -1.89,1.44 -0.81,3.56 -5.07,0.49 -8.11,11.89 -6.77,-4.53 -13.16,-9.45 -16.55,-17.16 -5.24,-11.94 0.42,-14.15 3.22,-26.17 -13.87,-1.16 -18.85,-6.13 -20,-20 16.23,1.35 24.6,11.13 20,-9.19 -3,-13.22 1.38,-16.29 -3.34,-20.81 -15.65,-6.46 -19.75,13.02 -23.33,-30 -25.46,5.93 -9.5,-4.42 -23.33,-10l-23.33 3.33 10.07 6.61c4.51,4.06 2.46,3.18 8.02,9.06 10.88,11.51 15.07,5.04 5.24,14.34l10 0c0,4.88 0.47,11.74 -0.56,16.33 -4.64,20.69 -9.56,-4.65 -22.78,20.34 -16.03,-5.8 0.57,-0.57 -7.89,-5.44 -7.37,-4.24 3.14,-3.29 -12.11,-4.56l-14.52 35.48c-2.69,12.43 -10.13,24.53 -2.14,41.19 -22.26,11.78 -7.46,7.08 -34.15,39.19 -7.46,8.98 -1.8,2.43 -6.43,10.23 -4.82,8.12 -2.41,4.04 -8.54,11.46l-5.61 7.73c-6.73,10.19 1.54,7.79 -11.94,11.39 -8.83,-6.47 -6.61,-6.12 -8.86,-21.14 -1.65,-10.99 -1.14,-20.85 -1.14,-32.19l-10 0c0,41.24 7.53,30.2 -10,63.33 25.12,2.09 11.9,24.13 4.4,34.39 -10.3,14.08 -11.14,25.09 -34.4,25.61 -1.85,-22.28 -8.89,-13.34 -13.33,-30l13.2 3.74c-6.03,-12.04 -9.87,-12.13 -9.87,-30.41 8.7,-3.15 13.35,-13.63 11.02,-21.66 -3.98,-13.72 -12.99,-10.99 -24.36,-8.34 15.14,31.54 -1.52,33.1 -2.27,53.05 -0.49,13.14 9.58,21.4 16.75,32.49 11.34,17.53 16.91,33.15 -4.48,44.46 1.61,-19.29 8.13,-10.2 0.63,-26.88 -5.27,-11.74 -3.87,-19.54 -17.3,-23.12 -1.18,14.14 -3.11,25.65 -1.6,36.7 1.71,12.51 9.87,12.59 11.6,33.3 -10.67,-5.65 -11.24,-7.47 -20,-13.33l-13.24 6.85c5.07,7.54 8.86,10.63 9.9,23.15 -10.32,0.88 -6.3,-0.04 -13.33,3.33 1.51,18.15 4.35,24.65 0,43.33 -19.93,-0.44 -8.79,1.08 -18.85,-7.82l-11.15 -8.85 0 -23.33c9.47,6.34 15.67,20.48 21.67,5.56 7.14,-17.76 -5.58,-18.12 8.33,-38.89 -2.54,-1.7 -4.79,-3 -8.26,-5.07l-8.4 -4.93c31.02,-7.23 13.85,-23.63 13.33,-46.67l-10 0c1.17,14.01 3.79,10.98 6.67,23.33 -24.99,-2.73 3.18,-14.61 -30,-6.67 -10.04,20.93 6.14,19.8 -23.33,26.67 1.44,-17.28 3.07,-5.9 4.84,-17.52 1.77,-11.65 -6.86,-6.06 3.94,-16.81 5.97,-5.95 3.54,-3.61 11.22,-5.66 0,-15.12 -2.47,-20.08 -6.39,-30.28 -5.93,-15.42 -1.57,-15.98 -20.28,-16.39l0 13.33c-13.78,-1.15 -13.89,-4.21 -20,-13.33 11.52,-3.08 12.15,-5.8 13.33,-20l-10 0c-3.15,13.5 -0.89,10.04 -10,13.33 0,-25.73 -2.35,-29.16 19.04,-30.08 10.74,-0.46 6.69,6.13 17.62,10.08l0 -16.67c-23.47,-12.42 -31,-20.52 -56.67,-3.33 1.12,13.46 10.9,37.97 -10.27,17.48 -8,-7.74 0.26,-7.86 -14.58,-11.65 -13.54,-3.46 -1.81,5.33 -18.48,-5.83 13.32,-18.18 9.23,5.95 8.25,-21.23 -0.54,-15.04 0.62,-15.4 15.08,-18.77l-20 -6.67c0,-15.81 1.95,-28.98 -3.33,-40 -8.83,3.57 -2.48,-1.28 -6.65,6.7 -9.26,17.74 6.07,47.94 3.71,50.3 -5.7,5.7 -2.39,-3.09 -17.06,-7.01 -1.29,15.48 3.57,5.83 -6.67,13.33l-12.82 -10.57c1.77,-9.24 2.82,-9.6 2.82,-22.76 -13.83,10.14 0.68,8.7 -16.67,13.33 -7.93,-16.54 5.84,-16.7 20,-20 -10.66,-15.92 -6.91,-8.91 -4.21,-27.61 2.46,-17.07 0.47,-22.03 -9.12,-29.06 0,17.38 -3.54,19.92 -6.67,33.33 -12.91,-3.01 -12.95,-0.99 -20.05,-1.87 -8.43,-1.05 -10.17,-5.17 -17.07,-5.41 -0.48,-0.02 -1.45,0.13 -1.93,0.17l-6.16 1.8c-6.65,1.07 -11.38,0.53 -15.72,-5.31l-2.39 -6.03c-12.36,3.3 -4.31,3.37 -16.67,6.67 -22.55,-26.02 3.38,-25.92 -8.02,-58.63 -3.84,-11.02 -4.89,-8.44 -12.07,-14.61 -0.52,-0.45 -1.24,-1.12 -1.78,-1.55l-14.79 -8.54c0,-6.07 0.46,-13.82 -0.42,-19.67 -1.64,-10.94 -2.4,-4.91 -4.22,-15.34 -2.73,-15.65 7.57,-16.31 -15.36,-21.65 2.2,10.39 1.25,20.1 -3.33,30 -16.82,-3.92 -19.53,-6.51 -26.67,-20 11.65,-15.89 16.05,4.26 16.67,-23.33l15.14 0.34c0.26,-0.03 1.06,-0.12 1.53,-0.34 -4.11,-6.14 -8.93,-9.02 -11.47,-15.2 -3.95,-9.63 -0.19,-11.02 -5.2,-21.47 -13,4.7 -18.28,43.47 -28.16,58.15 -0.27,0.41 -0.87,1.2 -1.12,1.59l-2.9 6.56c-0.22,0.35 -0.68,1.22 -0.94,1.55 -8.24,10.62 -12.19,2.44 -13.55,18.81 16.8,4.49 6.53,8.85 23.33,13.33 -1.19,-14.33 0.47,-6.01 -6.67,-16.67 28.49,0.63 13.84,10.17 10,26.67 9.31,-1.02 5.23,-1.52 7.62,-2.15 0.89,-0.23 10.73,-11.68 9.35,25.51 -0.58,15.57 -1.06,19.57 -10.31,23.3 -7.87,-16.39 3.41,-16.84 -10,-26.67 -0.56,25.25 -8.2,26.54 -23.33,36.67l-10 -13.33c5.62,-7.67 22.5,-14.52 -3.33,-16.67 -7.46,32.04 12.04,34.58 23.33,40 0,17.65 -3.81,16.33 -0.1,24.41 1.7,3.71 10.39,9.69 13.86,15.14 4.83,7.56 0.5,0.66 4.11,9.25 0.41,0.96 1.38,3.92 1.84,4.83 7.13,14.03 11.75,8.04 20.3,19.7 -12.13,2.83 -10.69,1.84 -16.67,10 3.07,11.52 1.81,10.26 13.33,13.33 -3.74,5.11 -0.73,4.69 -7.61,5.74 -17.27,2.63 -3.7,0.12 -7.84,-2.97 -4.5,-3.35 1.39,-7.84 -17.87,-9.44 -0.23,0.49 -0.08,0.92 -0.07,1.63 0,0.72 -0.06,1.41 -0.06,1.65l0.2 8.43c-0,0.23 0.16,1.14 -0.07,1.63 -8.02,-5.88 -8.89,-6.67 -10,-20 9.87,-4.74 9.31,-3.33 23.33,-3.33 -9.69,-20.2 -0.74,-10.09 -18.71,-24.62 -9.93,-8.03 -11.29,-15.66 -11.29,-32.05l-10 0c-1.47,17.69 -4.31,7.17 -7.24,18.68 -2.54,10 2.6,5.6 3.91,21.32 -9.27,-4.45 -6.46,-3.33 -20,-3.33 5.12,7.37 0.54,4.14 10,6.67 0,35.48 -8.82,5.34 -20,53.33l-13.33 0c-0.62,-27.93 -20.87,-13.72 -9.13,-49.02 3.9,-11.71 0.57,-16.76 5.79,-27.65 9.86,3.98 6.18,6.85 12.5,17.51 4.66,7.87 0.57,1.69 4.17,5.83l8.33 -35.01c2.75,-10.76 5,-29.89 5,-41.66 -16.45,4.39 -5.62,6.01 -15.93,20.9 -7.9,11.41 -11.35,8.73 -24.07,5.77 1.15,-13.79 7.46,-17.17 16.67,-23.33 -19.48,-29.09 -6.67,-11.31 -6.67,-66.67 14.93,5.4 -1.66,-0.68 8.04,5.3 5.17,3.19 1.45,2.79 8.63,4.7 0,-22.48 8.59,-19.88 2.7,-32.44 -3.92,-8.36 -14.22,-17.82 -22.7,-20.89 -7.14,10.66 -5.48,2.33 -6.67,16.67 -9.64,-7.06 -6.67,-2.71 -6.67,-20l-6.57 3.48c-18.03,4.83 -9.91,-30.85 -31.15,38.81l-8.94 54.39c31.68,16.76 10.63,14.89 10,43.33 -13.09,-8.76 -16.87,-24.09 -19.87,-0.34 -3.94,31.21 -2.63,13.2 -13.46,33.68 -13.33,-7.05 -36.93,-17.38 -22.29,8.43 9.37,16.51 9.77,20.14 2.29,38.24 -19.91,-1.66 -5.72,-5.3 -23.33,-10 0,27.85 -0.86,17.11 10,33.33 -35.75,-8.33 -10.35,28.2 -33.33,50 -3.76,-2.61 -4.07,-1.25 -6.72,-6.69 -5.56,-11.39 -1.72,-2.81 -0.1,-7.13 5.37,-14.41 7.71,-8.26 9.25,-45.27 0.23,-5.52 -0.16,-2.81 0.09,-9.39 0.17,-4.6 0.82,-9.46 0.82,-14.86 -15.48,-1.29 -5.83,3.57 -13.33,-6.67l20.67 -22.68c-7.8,-10.38 -2.81,-4.72 -14.01,-10.65l7.56 -35.69c2.14,-9.64 -0.18,-5.39 -0.96,-12.81 -1.4,-13.23 8.06,-0.88 0.07,-18.17 -9.2,3.33 -13.29,16.19 -26.67,10 4.46,19.15 -3.33,21.44 -3.33,46.67 -10.35,-3.75 -4.3,-6.7 -16.67,-10 -8.3,5.56 -10.14,13.39 -19.49,17.72 -13.99,6.49 -14.18,-1.25 -23.85,-7.72 4.18,-17.94 17.55,-33.81 0,-46.67 -1.91,23.01 -10,18.44 -10,50 -13.16,0 -13.52,1.05 -23.33,3.33 5.44,-23.36 29.35,-37.81 22.47,-49.69 -13.72,-23.72 1.48,11.06 -5.81,-6.98 8.97,-6.57 5.19,-11.65 13.59,-19.92 9,-8.87 14.07,-4.11 6.41,-20.08 -22.5,6.01 -14.59,24.12 -33.33,36.67 0.4,-17.72 8.53,-30 11.72,-45.63 4.81,-23.57 -29.22,-4.6 -30.9,20.54 -1.26,18.94 -2.4,8.44 5.85,11.76l0 10c-10.31,3.73 -4.44,-1.89 -9.48,10.52 -24.9,61.32 -16.73,10.85 -41.02,62.31 -4.2,8.9 -8.59,22.92 -9.5,33.83 23.08,-15.46 9.92,-23.5 23.33,-33.33 8.77,18.27 -15.51,46.75 -22.46,64.2 -2.43,6.09 -1.14,6.06 -4.21,12.46 6.57,3.15 15.39,4.81 23.33,6.67l-13.24 40.58c-0.34,1.27 -1.29,6.5 -1.3,6.89 -0.29,12.23 13.2,17.24 21.77,25.3 4.28,4.02 5.05,4.3 9.44,7.23 -2.74,11.76 -3.33,10.95 -3.33,26.67l-13.33 0c13.37,25.27 -8.08,12.36 -7.2,31.29 0.52,11.2 -4.29,29.2 -10.81,44.03 -6.39,14.55 -9.99,17.37 -13.93,32.74 -3.53,13.78 -1.8,9.24 -8.06,18.6 -12.13,-2.83 -10.69,-1.84 -16.67,-10 19.77,-5.28 11.47,-18.89 20,-36.67 -19.3,5.15 -13.13,12.35 -20,26.67 -22.31,-1.86 -9.18,-18.22 -20.33,-7.07 -5.19,5.19 1.79,15.66 3.67,23.73 -19.61,-2.14 -1.02,1.47 -16.67,-10 -5.85,8.74 -1.69,6.89 -13.33,10 -4,-17.17 -1.67,-38.83 -0.29,-56.73 0.83,-10.83 -0.52,-22.31 0.67,-32.9 1.2,-10.72 5.3,-18.44 6.29,-30.37 -13.45,-3.59 -11.42,-15.68 -13.18,-30.15 -1.78,-14.59 -3.84,-23.76 -6.89,-36.44 -4.37,-18.18 -4.92,-36.81 -10.65,-53.17 -10.74,-30.69 13.94,-13.47 27.39,-33.56l-16.67 0c5.01,-9.46 10.67,-18.56 13.33,-30 -20.1,5.37 -12.87,16.56 -26.67,26.67 -19.44,-14.24 -5.87,-13.51 -43.33,-33.33 0.54,-24.04 10,-10.36 10,-40 -15.8,-0.35 -13.22,0.13 -20,-10 9.51,-2.21 11.3,-4.33 16.67,-10 -0.91,-10.88 -0.36,-7.03 -4.54,-15.45 -5.26,-10.59 1.08,-7.69 -12.12,-11.21 -2.51,11.85 -2.85,7.44 3.33,16.67l-16.67 0c2.37,10.19 5.19,12.81 10,20 -9.81,2.29 -10.17,3.33 -23.33,3.33l13.33 33.33 -10 13.33c-27.98,-18.74 -2.51,-32.59 -18.42,-41.99 -9.66,-5.71 -21.22,6.66 -27.13,13.11 -5.81,6.33 -5.3,2.89 -7.78,12.22 10.34,-2.41 9.65,-4.26 20,-6.67 0,18.67 0.72,27.07 -11.2,35.46 -6.74,4.74 -24.06,12.66 -32.13,14.54 0,-13.41 4.8,-35.8 -3.39,-46.62 -0.42,-0.55 -1.24,-1.12 -1.71,-1.62 -12,-12.71 -10.21,-14.16 -11.76,-34.91 -0.94,-12.71 -3.87,-15.63 -6.48,-26.85 -16.11,-1.34 -9.44,-4.23 -23.44,2.96 -8.58,4.41 -14.81,8.55 -20.77,16.2 -4.32,5.55 -5,8.55 -6.41,10.44 -4.9,6.57 -9.91,4.52 -16.03,10.38 -5.22,5 -1.06,4.02 -10.02,10.02l1.06 -37.43c-0.82,-14 13.81,-51.85 25.5,-59.34 4.09,-2.62 9.94,-4.74 15.73,-7.61l14.37 -8.96c-13.94,-3.25 -9.16,-6.28 -26.67,-6.67 0,-21.05 3.89,-24.78 16.67,-33.33 -2.28,-9.81 -3.33,-10.17 -3.33,-23.33 -17.95,4.79 -12.46,32.66 -43.33,53.33 25.37,37.89 -21.01,42.22 -23.33,43.33 3.36,8.32 0.81,1.87 6.25,7.09 3.93,3.78 -0.15,-3.63 7.09,6.24l-5.9 14.1c-7.09,16.02 -1.22,16.05 -16.94,26.65 -18.31,12.35 -4.59,1.95 -9.72,14.32 -4.42,10.65 -7.15,6.06 -10.77,21.59 -1.79,-0.15 -8.11,-1.52 -8.45,-1.54 -12.85,-0.45 -9.16,6.89 -24.88,8.2 -5.36,-23.01 -25.46,-63.2 -52.34,-59.1 -14.43,2.2 -33.76,18.69 -44.33,25.77l0 -33.33c-15.65,1.3 -11.76,4.52 -20.04,16.62 -6.48,9.47 -23.7,36.13 -32.03,41.31 -6.61,4.1 -20.56,10.35 -27.93,12.07 0.72,-32.34 13.79,-14.43 -3.33,-40 4.32,-18.55 10.62,-13.74 3.85,-37 -7.85,-26.93 -3,-56.13 -17.07,-83.1 -6.04,-11.56 -13.45,-19 -16.77,-33.23 -20.62,1.72 -19.4,12.06 -36.67,16.67 -18.04,-12.08 -22.88,-20 -46.67,-20 -19.54,29.19 -23.69,64.7 -51.88,88.12 -81.71,67.87 -96.55,122.27 -128.96,151.04 -13.48,11.96 -10.9,12.05 -17.88,25.45 -2.92,5.6 -44.5,30.28 -55.41,41.26 -11.53,11.61 -15.5,10.44 -26.73,19.98 -3.95,3.36 -1.04,1.21 -5.25,4.94 -10.3,9.12 -13.19,2.76 -22.26,8.08 -10.98,6.44 2.7,12.5 -12.22,27.06 -9.06,8.84 -16.04,17.35 -26.08,24.08 -1.56,-18.77 -1.56,-7.89 0,-26.67 -4.97,-2.63 -2.96,-2.81 -8.46,-5.71 -3.47,-1.83 1,-11.24 -8.59,-1.21 -8.82,9.22 -0.04,6.56 0.05,6.82l2.24 3.84c3.3,7.28 1.43,-0.47 2.43,5.87 2.4,15.36 -10.03,33.17 -15.33,42.73 -15.27,27.52 -40.15,35.96 -59.57,60.43 -9.15,11.54 -15.31,23.91 -23.41,36.59 -7.77,12.17 -18.3,23.37 -24.4,35.61 -4.33,8.7 -4.52,11.9 -9.63,20.37l-35.34 54.66c-13.58,-5.48 -0.54,-4.83 -13.33,-10 -0.7,0.44 -1.87,0.12 -2.24,1.1 -0.37,0.98 -1.76,0.85 -2.28,1.05l-15.48 4.52c5.75,7.85 14.13,8.96 26.67,10 -3.19,38.35 -18.09,40.95 -30,46.67l0 59.16 6383.34 0 0 -2.5 13.33 0 0 -356.67c-17.83,4.76 -16.07,14.4 -31.91,24.76l-17.2 12.81c-0.45,0.53 -0.98,1.37 -1.42,1.91 -19.36,23.44 -33.05,26.51 -40.62,35.84l-4.74 5.46c-4.02,3.29 -7.09,3.33 -11.02,6.2 -6.52,4.78 -2.44,5.64 -1.84,6.81 7.68,15.04 6.5,-11.4 2.07,2.87 -5.71,24.52 -5.69,4.95 -3.33,33.33 -10.67,5.65 -12.05,1.2 -13.33,16.67 17.44,1.49 6.02,-3.18 10,6.67 -11.8,7.91 -15.76,11.94 -10,36.67l-13.33 0c-0.36,-16.14 0.87,-10.92 -10,-16.67 -22.05,14.77 2.16,23.9 -23.33,30 11.75,-24.48 -12.22,-15.88 -23.33,-10 0.67,-30.26 15.04,-24.18 20.4,-25.35 14.97,-3.28 1.96,-15.38 22.77,-48.1l2.53 -4.17c14.62,-26.04 7.19,-14.22 25.61,-24.4 6.02,-3.33 16.92,-31.33 28.05,-48.61 9.74,-15.11 29.87,-40.1 30.64,-49.36 18.52,0 23.01,-2.2 36.67,-3.33 -5.82,-5.06 -4.13,-4.52 -13.33,-6.67 9.32,-13.92 5.93,-6.58 20,-13.33 3.54,15.22 0.69,11.95 13.33,13.33l-20 -30c13.1,-0.29 7.82,0.91 16.67,-3.33l3.8 -36.81c1.29,-10.11 -0.13,-9.39 -7.13,-19.85 8.14,-8.98 -0.81,-2.75 10,-6.67l0 -50 -13.33 0c12.94,-19.33 13.33,-3.45 13.33,-36.67 -15.48,4.13 -2.95,5.25 -20,6.67 -0.51,-22.72 -9.56,-11.31 -3.24,-26.28 3.41,-8.09 13.92,-14.57 23.24,-17.06l0 -53.33c-9.11,3.3 -9.01,8.65 -17.58,15.75 -10.09,8.36 -11.5,3.89 -19.08,14.25 27.07,-0.61 20.28,-3.15 13.33,26.67l-6.67 0c-1.2,-14.43 1.1,-6.67 -7.48,-12.52 -0.61,-0.42 -1.64,-0.67 -2.28,-1.06l-4.39 -2.27c-0.56,-0.42 -1.39,-0.96 -1.89,-1.44 -12.28,-11.83 -4.94,-43.78 -4.93,-56.05 0,-7.46 -2.36,-19.57 -2.36,-33.33 -9.11,3.3 -6.85,-0.17 -10,13.33 -7.93,-5.31 -3.47,-4.03 -13.33,-6.67 4.67,-8.83 6.36,-9.69 6.67,-23.33 -10.62,7.78 -2.71,5.55 -13.33,13.33l-12.59 -14.07c-3.67,6.85 -5.37,12.17 -8.68,19.47 -4.57,10.09 -5.1,7.8 -5.4,21.27 -8.73,-5.85 -6.89,-1.69 -10,-13.33 -14.41,9.65 -9.54,11.81 -16.67,26.67 -24,0 -10.24,-2.28 -26.67,-6.67 -12.96,24.48 -4.69,30.8 -23.07,43.6l-20.18 17.26c-0.5,0.27 0.89,-5.74 -4.07,2.06 -2.95,4.65 -1.95,-0.74 0.65,10.41l-16.67 0c0,4.39 0.98,9.8 1.04,12.62 0.17,8.06 2.6,1.78 -1.07,8.36 -2.13,3.82 -23.37,16.89 -14.13,32.73 2.47,4.25 13.23,10.1 17.5,12.96 -1.37,16.54 -3.81,10.2 -2.6,25.39 1.54,19.45 1.01,23.36 -14.06,24.61 3.43,-14.73 10.33,-13.37 3.57,-26.53 -6.86,-13.34 -12.01,-4.68 -13.57,-23.47 -23,0.51 -30.25,14.2 -36.67,-13.33 0.17,-10.93 8.86,-10.17 12.21,-21.12 2.11,-6.88 -0.12,-7.44 2.64,-14.03 3.29,-7.86 0.85,-5.42 8.48,-8.19l0 -6.67c-18.13,0 -25.28,-3.4 -26.67,-20 -17.32,4.63 -8.14,9.83 -23.33,20 0,-31.97 -9.76,-37.05 18.87,-30.58 20.02,4.52 -4.65,-31.84 -0.01,-44.13 5.84,-15.45 16.72,-5.3 21.71,-24.72 1.08,-4.2 1.56,-8.74 2.76,-13.91 -22.57,1.88 -12.74,4.23 -33.33,-6.67 -2.3,8.63 -5.81,12.08 -10,20 -20.57,-0.46 -26.14,-3.58 -26.67,20l-10 0c3.11,-14.67 6.93,-5.92 -3.33,-13.33 -9.14,6.7 -7.96,9.84 -13.33,20 -8.48,-2.26 -13.94,-2.66 -17.24,-9.8 -1.9,-4.11 -1.57,-5.07 -2.76,-10.2 9.31,0 14.98,-0.74 20.39,-2.94 7.78,-3.17 10.58,-4.89 12.94,-13.72 -17.52,0 -16.35,3.68 -20,-10 8.28,-3.42 7.28,-1.38 16.96,2.69 11.85,4.98 5.93,3.98 23.04,3.98 -3.36,-14.42 -1.62,-15.14 1.3,-25.13 6.69,-22.9 -4.38,-17.63 10.88,-41.72l12.43 -18.4c1.65,-1.48 4.91,-4.24 5.4,-4.76 -2.74,-11.75 -3.33,-10.95 -3.33,-26.67l-33.38 9.95c-12.33,6.68 6.83,0.64 -9.95,6.71 1.61,-19.3 13.81,-19.07 16.67,-53.33 -7.6,1.77 -7.67,2.58 -16.67,3.33 3.43,-12.83 4.94,-7.55 12.73,-13.94 7.63,-6.27 11.04,-8.04 13.94,-16.06 -10.75,5.16 -18.17,3.33 -33.33,3.33 3.15,-6.57 4.81,-15.39 6.67,-23.33 -6.88,-4.61 -10.67,-13.47 -18.71,-5.63 -16.89,16.46 11.72,7.88 -7.96,22.3 -0.63,-7.52 -1.43,-12.49 -5.35,-17.99 -6.33,-8.91 -20.72,-20.22 -31.69,-17.94 -16.23,3.37 3.48,-0.53 -11.43,10.52 -11.23,8.33 -26.2,4.97 -34.82,18.78l-16.71 36.63c28.93,-19.38 20.35,-31.19 40,-33.33 0,82.81 -56.09,46.34 -60,93.33 14.19,-9.5 23.68,-21.37 40,-30 -4.78,17.9 -15.22,15.91 -16.67,33.33l23.33 0c-0.94,11.24 -5.39,20.43 -16.78,14.06 -7.81,-4.37 -3.23,0.85 -6.56,-7.39 -5.78,4.24 -6.11,6.35 -6.57,6.76 -12.57,11.04 -12.71,3.8 -17.72,12.28 -4,6.77 -2.17,5.2 -2.37,14.3 14.71,-3.43 29.74,-3.19 43.33,3.33 -8.42,17.55 -1.18,12.21 -18.61,24.73 -13.85,9.95 -14.73,10.18 -14.73,31.94 -23.83,-15.96 -20.39,8.96 6.17,21.28l3.03 1.37c6.33,5.01 1.4,4.46 4.13,17.35l10 0c0.41,-18.2 3.21,-12.67 13.33,-23.33 -0.93,11.19 -26.24,52.75 -33.33,63.33 10.41,6.97 12.95,9.68 13.33,26.67l-13.33 0 0 -10c-13.55,0 -10.73,-1.11 -20,3.33 -4.63,-9.65 -2.04,-13.68 -6.67,-23.33 -7.83,3.16 -6.54,9.08 -10.69,16.2 -9.16,15.73 -1.11,0.98 -15.98,7.13l0 13.33c6.57,3.15 15.39,4.81 23.33,6.67 -1.17,14.01 -3.79,10.98 -6.67,23.33l-13.33 0c5.44,11.33 1.11,9.94 0,23.33 14.39,1.2 13,1.88 13.33,16.67 -7.99,-2.13 -8.88,-3.09 -15.36,-7.97 -17.6,-13.26 -34.64,-15.73 -34.64,-42.03l13.33 0c1.09,9.99 -1.92,9.24 8,12.05 10.1,2.86 5.34,-1.54 5.34,-38.71 -8.19,-0.9 -21.19,-7.48 -24.11,-14.92 -4.37,-11.12 9.11,-16.28 -15.89,-18.41l-3.74 13.2c-9.33,-0.68 -4.39,-0.27 -10.01,-2.78l-6.37 -3.63c-0.59,-0.4 -1.43,-0.92 -1.98,-1.35 -9.49,-7.55 -4,-13.89 -12.67,-19.77 -7.06,-4.79 -24.53,2.58 -33.78,1.05l-8.56 -2.52c-16.52,-1.8 -42.61,11.97 -50.59,21.42l-14.4 8.94c-8.37,3.93 -4.48,4.74 -14.55,12.11 0,-25.46 9.63,-35.24 17.82,-58.85 8.1,-23.37 22.18,-26.89 22.18,-54.48 -27.62,6.43 -7.19,17.64 -40,10 6.76,14.08 -1.75,14.54 -2.18,29.97 -0.5,18.02 -2.38,18.26 -21.15,16.7 0.69,31.13 17.77,4.04 0.52,47.4l-4.87 19.73c-3.99,14.79 -18,26.56 -24.7,40.48 -5.91,12.27 -4.14,27.2 -15.13,37.85 -7.96,7.72 -13.63,4.18 -19.15,27.87 15.98,-3.83 5.18,-2.27 10,0 -4.72,8.91 -8.78,17.56 -16.67,23.33 -4.24,-8.85 -3.04,-3.57 -3.33,-16.67l-10 0c0,43.59 -10.52,30.56 -19.52,53.81l-12.8 23.91c-6.7,10.19 0.53,8.33 -8.91,24.16 -4.69,7.87 -6.38,11.17 -10.97,19.26 -10.03,17.65 -16.71,22.2 -37.8,22.2 -3.64,6.87 -4.63,7.9 -6.67,16.67 -27.46,-2.29 -5.26,-2.38 -26.67,3.33 1.66,-19.92 5.3,-5.72 10,-23.33l-4.61 -5.39c-5.72,-4.09 0.06,-3.6 -12.06,-4.61l20 -6.67c2.59,-11.14 6.67,-43.83 6.67,-56.67 -23.51,-6.28 1.95,-16.35 -6.67,-53.33 16.39,-6.77 4.07,7.89 14.23,-9.27 2.67,-4.51 -3.02,-5.25 7.52,-9.02 12.04,-4.31 5.87,1.17 6,3.83 0.27,5.28 -7.36,12.94 -10.29,18.81 -6.06,12.16 -1.93,12.08 -0.8,25.65 17.04,-4.55 17.82,-26.65 21.52,-41.81 4.61,-18.88 10.08,-28.91 8.48,-48.19 -24.66,16.51 -4.91,22.28 -36.18,33.82 -8.18,3.02 -10.3,4.92 -17.16,9.51l0 33.33c-13.93,0 -20.99,2.35 -30,6.67 0,-13.96 1.59,-14.47 8.38,-21.68l5.22 -10.25c0.15,-0.38 0.56,-1.3 0.71,-1.67 2.59,-6.23 2.14,-0.26 2.65,-6.06 0.41,-4.73 -2.76,-6.52 -3.63,-17.02 26.91,-2.24 26.3,-47.03 50.17,-96.72 4.11,-8.56 0.78,1.89 3.81,-8.95l8.49 -21.63c1.96,-2.96 2.31,-3.72 3.98,-6.2 6.19,-9.26 7.1,-6.42 10.22,-19.82l-23.33 -16.67c-15.39,13.37 -2.15,20.43 -15.54,34.31 -0.68,0.7 -2.9,2.49 -3.51,3.27l-7.3 19.42c-9.39,18.05 -16.99,10.6 -16.99,39.67 -15.66,1.3 -24.02,24.72 -30.92,39.08l-14.74 35.26c-2.53,13 2.57,13.47 -5.27,21.41 -5.13,5.19 -39.66,10.3 -12.4,17.58 -0.72,8.7 -8.59,31.04 -15.17,29.69 -6.27,-1.29 5.14,3.56 -2.72,-1.72 -19.12,-12.83 11.92,2.37 -5.44,-4.64 -3.64,15.63 -14.37,23.02 -23.33,33.33 2.3,8.67 -1.24,3.72 6.67,6.67l0 16.67 -19.89 3.84c-0.1,-24.69 12.82,-40.93 10.5,-58.6 -0.85,-6.4 -8.64,0.32 1.5,-6.78 11.96,-8.37 5.72,7.88 17.89,-15.12 0.37,-0.11 0.88,0.22 0.95,0.66 0.07,0.44 0.85,0.63 0.95,0.7 8.07,4.92 -0.02,11.8 16.18,-19.93l13.27 -30.1c9.75,-18.28 7.68,-3.36 15.02,-25.93 6.93,-21.32 24.83,-36.47 26.96,-62.06 -19.9,-10.96 -22.96,2.94 -32.01,24.66 -0.4,0.97 -1.47,3.83 -1.95,4.71l-46.04 53.96c5.48,13.59 4.84,0.54 10,13.33l-13.46 23.27 -15.96 -13.89c7.57,-11.57 14.57,-12.37 9.41,-28.94l-1.75 -5.06c-3.89,-11.83 -5.5,-15.74 -18.24,-18.71 6.21,-9.27 12.99,-21.41 13.33,-36.67 -18.83,12.61 -1.78,20.09 -30,26.67l-5.33 -4.67c-3.94,-5.11 -2.74,-1.4 -4.67,-8.66 18.78,1.56 16.07,4.13 30,-16.67 -7.11,-30.5 -3.94,-35.01 -6.28,-62.41 -0.67,-7.79 -14.13,-7.07 9.61,-7.59 0.38,17.13 -3.02,9.57 6.67,16.67 5.52,-8.25 10.71,-12.84 4.67,-27.99 -2.1,-5.26 -3.76,-7.81 -8.75,-9.28 -4.93,-1.45 -4.58,2.67 -9.25,0.61 5.3,-19.83 9.96,-4.9 3.33,-33.33 -32.41,2.7 -5.65,17.7 -33.33,20 -2.74,-32.94 -42.52,-13.9 -33.33,-53.33 -15.48,4.13 -2.94,5.24 -20,6.67 0,-30.48 7.67,-24.5 -27.21,-25.03l-15.78 -1.17c-0.63,0.13 -1.56,0.5 -2.24,0.67 -0.74,0.18 -1.68,0.51 -2.47,0.71 -0.85,0.21 -1.78,0.46 -2.68,0.68l-16.28 4.14c3.79,-16.26 9.56,-13.57 10,-33.33 -8.66,-2.3 -3.72,1.24 -6.67,-6.67 -7.43,8.55 -6.69,16.39 -16.67,20 5.61,-24.09 13.52,-43.4 33.33,-56.67l0 -33.33 -10 0c8.04,-10.97 1.57,-1.95 10.53,-9.17 8.51,-6.85 -5.06,-2.69 9.47,-7.5l-5.77 -4.26c-0.41,-0.44 -1.17,-1.25 -1.59,-1.78l-5.08 -8.65c-0.37,-0.65 -0.88,-1.54 -1.22,-2.17 -6.26,-11.5 -7.67,-4.56 0.32,-16.49l-16.67 0c2.93,-35.17 26.98,15.56 20.29,-16.29 -0.5,-2.37 -4.9,-16.11 -5.85,-21.73 -2.27,-13.4 -2.17,-16.15 2.22,-25.31 13.52,-4.19 -14.89,-4.57 5.54,3.24 0.33,0.13 1.28,0.49 1.65,0.61l8.21 1.61c0.62,0.15 1.58,0.38 2.22,0.55l12.38 4c-1.83,7.85 -3.11,9.85 -3.33,20l13.33 0c-4.57,-19.63 -1.55,-8.05 0,-26.67 -6.38,-3.37 -19.08,-8.96 -23.6,-13.07 -7.37,-6.69 -8.45,-18.04 -12.26,-28.39 -1.45,-3.94 -11.21,-0.59 1.08,-6.82 7.63,-3.87 7.43,0.37 15.96,-3.75 10.74,-5.19 4.13,-13.16 22.16,-17.97 0,-19.5 -5.67,-21.88 -13.33,-33.33 33.75,-2.81 48.11,-38.72 -1.83,-51.74 -16.67,-4.35 -29.42,-4.81 -34.83,18.41l-6.67 0c-3.11,-11.65 -1.27,-7.48 -10,-13.33 -6.58,12.44 -8.35,15.54 -20,23.33 0,-32 15.7,-15.53 10,-40 -18.08,4.83 -36.34,37.34 -47.97,52.04 -8.72,11.03 -12.14,9.02 -18.7,17.96 7.78,10.62 5.55,2.71 13.33,13.33 -18.85,9.97 -42.81,26.67 -43.33,50 -18.07,-4.83 -3.49,-8.78 -16.67,-3.33 3.87,14.49 8.59,16.67 26.67,16.67l-2.46 4.33c-2.8,6.76 -0.78,-1.56 -2.38,6.53 -5.59,28.11 13.45,43.96 -3.81,41 -8.82,-1.52 -5.48,-1.69 -8.14,-7.02 -7.43,-14.89 9.52,-3.94 -13.2,-14.84 -1.22,14.66 -4.91,10.8 -13.82,17.15 -9.38,6.69 -6,16.38 -11.28,27.9 -9.99,21.78 -23.32,-6.18 -41.56,28.29l36.67 -10c-5.96,22.31 -21.84,34.62 -40,43.33 1.54,18.47 6.19,12.37 10,26.67 -20.25,1.69 -25.83,18.42 -34.05,32.61 -3.3,5.69 -6.04,9.22 -9.28,14.05 19.69,-4.59 7.59,-1.11 26.67,3.33 -3.93,7.43 -5.56,10.04 -10,16.67 -10.62,-7.78 -2.71,-5.55 -13.33,-13.33 -3.67,5.48 -15.9,18.17 -7.28,26.78 7.74,7.74 2.98,2.07 12.65,-0.65 9.22,-2.59 5.06,-2.8 17.97,-2.8 0.32,-14.46 8.43,-21.67 16.55,-36.79 8.09,-15.05 -0.97,-5.87 10.12,-9.88 -8.35,-20.7 9.87,17.2 -4.63,-5.43 -3.63,-5.67 -6.66,-0.21 3.38,-8.43 12.91,-10.56 14.28,-18.11 31.25,-29.48 0,38.72 -5.06,17.9 -13.64,36.44 -0.01,0.02 -8.7,2.8 0.93,4.34 5.39,0.86 1.44,0.18 6.4,-3.19 16,-10.86 0.08,-4.27 16.31,-4.27l0 13.33c-10.32,0.88 -6.3,-0.04 -13.33,3.33 5.76,8.59 14.98,12.4 2.3,21.83 -14.91,11.09 -14.98,-1.95 -25.63,18.17 11.31,4.67 2.89,0.65 8.09,0.42l8.58 -0.42c-0.58,1.22 -2.72,6.16 -3.22,6.98 -3.42,5.59 -9.14,8.72 -8.09,15.03 0.01,0.05 4.38,7.58 4.65,8 -8.77,2.04 -9.59,2.2 -16.08,7.34 -15.17,12 -4.34,18.82 -13.13,28.07 -5.01,5.28 -0.62,4.58 -17.46,4.58 -5.45,-20.56 -11.95,10.39 -10.36,19.64 1.22,7.09 -1.78,10.26 -6.31,17.03 -10.35,-5.48 -13.63,-10.74 -23.33,-13.33 1.62,19.51 12.88,26.28 13.33,46.67 -0.48,0.22 -1.39,-0.24 -1.55,0.35 -2.42,9.27 -0.18,-0.63 -4.72,1.84 -10.22,5.57 -11.01,5.54 -23.74,4.48 3.16,11.83 8.31,10.6 9.02,20.54 0.87,12.35 -8.26,13.15 -9.88,22.45l-1.74 17.97c-4.41,12.26 -6.59,7.37 -14.07,2.37 -1.13,13.51 -7.63,15.77 -18.39,22.45 -6.43,3.99 4.26,6.58 -7.3,2.11 -13.33,-5.15 11.93,-23.7 22.36,-24.57l-6.67 -30c5.34,-20 21.53,-14.97 23.33,-36.67 -14.44,-1.23 -13.29,1.84 -3.42,-9.09 5.93,-6.56 8.37,-8.68 16.75,-10.91l0 -6.67c-7.6,-1.77 -7.67,-2.58 -16.67,-3.33 -3.11,11.66 -9.49,18.85 -23.33,20 0.39,-17.59 0.37,-13.02 13.33,-10l0 -20c-19.7,0 -23.44,2.42 -35.45,21.22 -8.77,13.72 -32.01,49.28 -41.22,55.45 -6.24,-9.32 -5.28,-10.16 -10,-20l16.67 0c0,-10.56 -1.94,-20.62 2.91,-27.32 5.41,-7.48 10.35,-3.52 20.43,-2.68 -1.97,-7.36 -7.15,-16.71 -12.91,-20.43 -4.81,-3.1 -16.54,-5.75 -23.76,-9.57 2.63,-9.84 1.29,-3.78 10.03,-13.54l7.01 -8.46c0.29,-0.29 1.04,-0.89 1.33,-1.15l6.33 -5.93c2.17,-4.34 1.39,-0.6 1.97,-7.59l-16.67 -6.67c22.01,-0.49 18.75,-5.99 23.33,6.67 10.62,-7.78 2.71,-5.55 13.33,-13.33 7.07,17.53 24.91,29.2 40,6.67 -7.66,-5.13 -6.7,-6.37 -20,-6.67 1.63,-19.59 6.39,-8.3 -3.33,-26.67 18.89,1.57 18.85,9.46 33.33,13.33 -2.24,-20.48 -29.82,-15.52 -13.33,-46.67 15.22,10.19 4.23,12.46 20,16.67l0 -30c-8.85,4.25 -3.57,3.04 -16.67,3.33 12.04,-16.43 20,0.69 20,-53.33 9.68,-6.48 4.47,-6.74 16.67,-10 9.84,-21.28 -22.55,-7.48 20,-30 -1.08,-12.95 -3.01,-8.69 -3.33,-23.33 14.37,-1.2 9.87,-2.41 19.12,-7.55l20.88 -9.12c-1.42,-17.05 -2.53,-4.51 -6.67,-20l16.55 -23.13c6.15,-18.22 -4.96,-3.8 -9.08,0.11 -9.2,8.73 0.55,5.95 -17.47,6.35 -0.83,37.3 -18.63,43.33 -43.33,43.33 4.74,-20.33 7.35,-12.09 15.87,-27.47l7.09 -12.91c4.37,-7.29 4.83,-6.81 7.04,-16.29 -10.96,2.93 -4.79,5.7 -16.67,10 -4.61,-19.8 -1.96,-16.29 6.67,-53.33 7.6,1.77 7.67,2.59 16.67,3.33 -6.26,-11.84 0.59,-9.61 -13.33,-13.33 7.31,-10.91 8.72,-4.63 10,-20 -6.08,3.02 -4.17,2.57 -13.33,3.33 10.28,-15.35 24.38,-26.42 33.33,-43.33 -14.65,0.33 -10.38,2.26 -23.33,3.33 0.75,-9 1.56,-9.07 3.33,-16.67 -25.44,0 -12.46,0.59 -26.31,13.69 -8.15,7.7 -6.19,2.42 -18.87,17.8 -0.31,0.37 -0.96,1.26 -1.48,1.85 3.6,9.35 -2.05,0.59 3.8,4.52l6.2 2.15c-11.22,16.76 -9.4,24.9 -26.67,13.33 -5.49,20.57 -20.04,10.29 -47.76,42.24 -8.28,9.54 -12.43,16.24 -20.26,26.41 -18.73,24.33 -8.21,-1.51 -32.08,37.92 -4.5,7.43 -4.63,6.1 -10.84,12.49 -21.43,22.06 -25.59,84.67 -49.06,90.94 0,-35.19 -5.94,-22.21 8.91,-51.08 8.03,-15.61 11.6,-30.55 19.91,-46.77 5.92,-11.56 42.4,-79.17 37.85,-88.81l-6.15 3.6c-1.82,1.8 -5.88,6.91 -7.63,9.15l-42.98 63.98c-8.35,13.47 -12.71,9.11 -15.26,15.44 -0.11,0.27 -0.28,1.22 -0.39,1.52 -0.12,0.34 -0.3,1.34 -0.44,1.72 -0.15,0.42 -0.4,1.42 -0.57,1.87 -7.49,19.78 -37.92,35.76 -26.58,59.38 -10.06,4.82 -12.77,2.95 -18.88,11.11 -7.28,9.72 -1.39,10.85 -17.79,12.22 8.05,-34.54 37.46,-63.06 47.5,-96.51 9.74,-32.41 -46.29,25.26 -50.37,30.31 -8.44,10.46 -11.42,10.66 -18.73,24.6 -8.54,16.28 -6.47,13.52 -21.73,21.6 0,26.71 -12.5,43.37 -34.02,55.98 -10.71,6.27 -10.55,4.02 -25.98,4.02 -9.76,18.43 -14.64,14.29 -20.45,32.89l-29.55 50.45c-14.44,-5.23 -2.93,-8.64 -26.67,-6.67 -3.72,-15.98 -12.91,-13.79 -21.08,-25.59 -7.81,-11.28 -7.44,-16.06 -18.02,-28.65 -9.34,-11.11 -8.9,-17.83 -11.79,-34.87 -2.98,-17.59 -9.11,-23.22 -12.44,-37.56 15.8,1.31 30.59,-3.89 40,0 -2.34,-28.11 -6.58,-12.9 -16.67,-26.67 1.77,-7.6 2.59,-7.67 3.33,-16.67 36.17,8.43 9.67,-21.61 26.14,-40.53 7.78,-8.94 4.74,-6.14 20.53,-6.14 -4.48,-16.8 -8.85,-6.53 -13.33,-23.33 31.3,-7.29 9.71,-26.71 24.57,-49.47 12,-18.37 -2.05,12.66 25.43,-0.53 -3.08,-11.52 -1.81,-10.26 -13.33,-13.33 26.22,-49.56 0.32,-23.84 11.88,-51.22l4.11 -6.07c7.67,-12.34 9.75,-34.21 24,-39.37 -1.26,-15.19 -1.85,-12.43 -13.33,-10 0,-33.3 9.35,-30.35 -20,-50l-0.08 -53.25c0.2,-0.91 0.91,-3.27 0.93,-4.09l-10.85 -19.33c4.66,-17.44 8.31,-2.19 5.49,-25.03 -1.63,-13.19 -2.15,-20.15 -2.15,-34.97 -17.44,-1.49 -6.02,3.18 -10,-6.67 11.3,-16.26 9.81,-15.35 0,-30l16.3 -20.41c9.44,-8.12 17.68,-7.69 10.37,-22.92 -12.82,3.43 -16.76,12.52 -28.1,18.57 -13.22,7.04 -15.04,16.3 -18.57,31.43 -11.76,2.74 -10.95,3.33 -26.67,3.33 0.64,-28.91 17.57,-15.26 23.33,-40 -15.46,1.28 -45.13,23.33 -55.87,34.13 -9.37,9.43 -14.24,11.57 -23.34,19.99 -21.15,19.56 -101.78,97.37 -112.94,113.37l-4.72 9.94c-11.34,19.3 -29.08,29.98 -41.76,47.27 -8.8,12 -2.82,3.81 -11.87,11.46 -12.35,10.44 -86.62,116.3 -102.83,127.16l56.66 -86.67c5.73,-10.71 25.48,-31.69 27.36,-40.82l9.31 -59.17c-27.06,12.99 -9.03,-6.43 -30.65,29.35 -22.3,36.9 -30.35,87.28 -59.35,120.65z"/>
   <path class="fil0" d="M1146.97 903.63l16.67 0c5.81,10.98 3.24,13.08 16.67,16.67 -2.25,-9.67 -4.24,-9.11 -4.52,-16.23 -0.5,-12.86 9.93,-24.98 -5.48,-57.11 6.87,-4.6 24.56,-13.05 29.02,-17.65 12.72,-13.11 0.67,-16.84 24.32,-22.35 -3.04,13.05 -3.04,6.96 0,20l6.67 0c9.9,-42.48 5.69,-18.69 0,-40 0.03,0.01 37.39,23.38 19.11,-8.52l-12.92 -14.33c-13.66,-8.81 -7.33,2.37 -19.52,-10.48 11.18,-16.7 25.87,-10.61 49.1,7.96 4.69,3.75 3.63,5.24 9.58,6.78 13.48,3.5 6.75,-0.4 5.07,-5.07 -1.46,-4.04 -29.1,-30.27 -44.56,-32.53 -11.86,-1.74 -24.68,2.2 -30.07,8.66 -7.32,8.76 -5.17,48.81 -32.46,37.54 -0.57,25.58 -12.13,18.65 -11.97,36.77 0.14,16.2 10.67,11.47 -1.37,36.56 -6.63,-4.44 -9.23,-6.07 -16.67,-10 -9.28,13.85 -16.16,10.45 -16.67,33.33l2.82 -3.85c10.84,-12.22 5.72,-8.54 17.18,-9.49l-17.32 19.38c3.7,12.48 4.55,13.45 13.57,21.04l3.75 2.92z"/>
   <path class="fil0" d="M1060.3 973.63l-10 0c0,30.47 -8.23,24.77 -13.33,46.67 13.08,-3.05 8.85,-8.52 19.11,10.73 4.56,8.56 0.95,-2.97 4.22,9.27 -10.41,-2.43 -17,-4.23 -21.24,7.73 -1.39,3.94 -1.56,19.78 1.24,25.61 8.41,-3.4 10.24,-10.07 13.33,-23.33 12.36,3.3 4.31,3.37 16.67,6.67 5.46,-8.15 12.55,-13.79 23.33,-16.67 -5.17,-7.72 -8.96,-10.81 -10,-23.33 18.37,-9.72 7.07,-4.96 26.67,-3.33l3.84 -19.89c-1.06,0.47 -4.79,4.02 -6.51,4.68 -1.56,0.6 -2.19,4.02 -8.98,0.49 -13.66,-7.1 8.31,-21.39 8.31,-58.61 -10.41,6.97 -12.96,9.68 -13.33,26.67 -20.03,-10.59 -1.21,-5.34 -16.67,-16.67 -10.75,16.05 -2.33,5.69 -1.17,25.81l4.5 30.85c-12.02,3.21 -8.91,0.3 -10,13.33 -8.08,-1.88 -13.37,-3.49 -20,-6.67 3.88,-16.63 10,-17.07 10,-40z"/>
   <path class="fil0" d="M3626.97 1076.97c0,34.53 13.22,8.34 0,33.33 22.65,-6.05 2.6,-15.26 26.67,-3.33 -6.48,9.68 -6.74,4.47 -10,16.67 12.89,-0.29 43.17,-22.26 50,3.33l6.67 0c3.42,-12.82 21.12,-25.51 4.97,-23.11 -20.63,3.06 -15.22,0.48 -17.5,-16.63 -4.05,-30.39 -0.11,-4.6 5.85,-26.93 -26.44,6.16 -66.67,-9.59 -66.67,16.67z"/>
   <path class="fil0" d="M2043.63 853.63c2.76,7.64 0.08,6.68 12.13,11.21l64.54 15.46c0.37,-16.45 0.21,-16.3 16.67,-16.67l-30 -43.33c-43.09,10.04 -23.99,33.24 -44.07,34.76 -19.21,1.46 0.65,-10.63 -19.26,-1.43z"/>
   <path class="fil0" d="M3560.3 1066.97c14.54,-5.87 18.45,-31.54 30,-40 -3.01,36.2 -19.55,47.64 36.67,10 -3.37,-7.02 -6.67,-29.05 -6.67,-40 -32.03,0.71 -37.39,7.18 -41.63,21.7 -5.57,19.07 -14.35,31.07 -18.37,48.3z"/>
   <path class="fil0" d="M3900.3 1343.63c34.69,-8.08 8.17,31.71 50.88,-5.79 9.24,-8.11 12.77,-11.26 15.79,-24.21 -16.25,3.79 -13.57,9.56 -33.33,10 -0.35,-15.76 3.39,-13.09 -10,-16.67 -2.93,12.59 -2.94,10.94 -10.8,19.2 -8.97,9.43 -6.48,6.02 -12.53,17.47z"/>
   <path class="fil0" d="M-573.04 1186.97l0 26.67c-11.56,2.69 -8.19,1.49 -14.81,8.52 -11.46,12.19 -27.45,29.38 -21.86,41.48 8.43,-5.64 11.59,-13.24 19.1,-20.9 9.34,-9.52 16.32,-10.88 17.56,-25.77 11.94,6.31 7.48,5.98 20,3.33 -0.57,-0.54 -1.53,-2.1 -1.71,-1.61l-2.88 -3.79c-5.53,-13.07 -0.76,-19.98 13.13,-26.06 13.36,-5.84 10.33,4.85 14.8,-11.87 -24.08,0.54 -16.12,10 -43.33,10z"/>
   <path class="fil0" d="M996.97 1130.3c-13.84,10.14 -0.15,4.57 -11.13,15.54 -10.97,10.97 -5.4,-2.71 -15.54,11.13 1.35,16.17 1.89,10.08 13.08,16.92 8.02,4.9 9.18,7.89 16.92,13.08l5.61 -11.06c7.23,-14.03 4.39,-17.68 4.39,-35.61 -11.2,-5.93 -6.2,-0.27 -13.33,-10z"/>
   <path class="fil0" d="M1996.97 733.63c0,21.96 -1.3,7.33 3.33,16.67 6.11,-4.48 3.6,-1.25 7.9,-8.76 23.74,-41.48 -9.39,-4.28 32.05,-27.95 21.44,-12.24 38.53,-18.39 40.05,-36.62 -8.24,4.37 -12.76,6.63 -21.43,11.9 -24.69,15.02 -61.9,27.87 -61.9,44.77z"/>
   <path class="fil0" d="M4543.64 1210.3l10 0c0.35,15.87 3.73,19.88 16.67,23.33 7.44,-14.07 10,-31.74 10,-53.33 -9.78,7.17 -12.79,13.91 -6.67,26.67 -7.6,1.77 -7.67,2.58 -16.67,3.33 7.5,-11.2 13.16,-24.93 16.67,-40 -10.99,5.27 -19.21,-6.31 -30,40z"/>
   <path class="fil0" d="M3820.3 1146.97l0 13.33 23.33 0c-6.23,26.76 -13.76,6.58 -20,33.33 17.96,-4.8 28.69,-24.92 36.67,-40 -11.69,-1.28 -9.65,3.43 -16.67,-26.67 -16.13,11.81 -1.54,18.19 -23.33,20z"/>
   <path class="fil0" d="M4453.64 1146.97c0,23.39 36.67,9.52 36.67,-3.33l0 -10c-22.96,0.51 -6.73,5.01 -26.67,6.67 7.78,-33.42 13.87,-5.76 6.67,-36.67 -0.52,0.59 -1.31,0.74 -1.51,1.82 -0.2,1.08 -1.21,1.45 -1.48,1.86 -5.78,8.83 -13.68,28.93 -13.68,39.66z"/>
   <path class="fil0" d="M1096.97 900.3c21.89,14.66 6.3,13.72 23.52,26.47 7.83,5.8 3.37,4.25 13.14,6.86 -0.93,-41.59 -9.74,-34.57 -13.33,-50 -13.79,1.15 -17.17,7.46 -23.33,16.67z"/>
   <path class="fil0" d="M1203.63 1050.3l6.67 0c8.56,-32.25 -6.67,-5.98 -6.67,-56.67 -13.16,0 -13.53,1.05 -23.33,3.33 -6.01,-22.51 -14.53,-2.55 -3.9,6.93 1.8,1.6 16.41,7.05 24.07,23.1 4.37,9.15 -0.25,8.67 3.16,23.3z"/>
   <path class="fil0" d="M3560.3 973.63c0,7.57 -15.7,14.89 -23.33,16.67 1.19,14.33 -0.47,6.01 6.67,16.67 11.47,-3.06 12.57,-7.7 20.86,-15.81 10.94,-10.69 12.47,-7.37 12.47,-27.53 -7.85,-1.83 -9.84,-3.11 -20,-3.33 2.14,8.94 3.33,6.28 3.33,13.33z"/>
   <path class="fil0" d="M1146.97 1146.97c10.26,0 10.87,-7.02 12.64,-14.03 6.57,-26.02 12.88,-12.94 0.69,-35.97 -7.12,5.22 -10.55,12.38 -14.42,22.27 -2.83,7.23 -10.16,27.73 1.09,27.73z"/>
   <path class="fil0" d="M1296.97 1116.97l0 23.33c9.86,2.63 5.4,1.36 13.33,6.67 8.71,-13.01 10,-10.65 10,-30 0,-17.37 -9.62,-3.2 -23.33,0z"/>
   <path class="fil0" d="M3950.3 1260.3c14.11,-1.17 13.66,-5.12 22.52,-14.15 6.41,-6.53 28.81,-26.32 4.74,-19.07 -19.25,5.8 -26.83,14.24 -27.26,33.22z"/>
   <path class="fil0" d="M3560.3 1096.97c-9.81,-2.29 -10.17,-3.33 -23.33,-3.33l15.91 17.43c10.35,-7.19 13.6,-14.09 21.59,-19.93 15.55,-11.36 18.67,1.7 19.17,-20.83 -6.07,1.62 -15.46,6.8 -20,10 -6.44,4.53 -9,10.2 -13.33,16.67z"/>
   <path class="fil0" d="M1170.3 973.63c13.92,-9.32 6.58,-5.93 13.33,-20 -29.69,-14.25 -14.52,-12.53 -30,-16.67 1.45,17.47 5.09,28.91 16.67,36.67z"/>
   <path class="fil0" d="M1310.3 1063.63c0,11.28 5.54,5.35 9.09,17.57 4.61,15.87 -5.57,9.46 7.57,19.09 2.26,-9.71 7.72,-22.02 4.82,-31.29 -5.82,-18.64 -21.49,-13.2 -21.49,-5.37z"/>
   <path class="fil0" d="M-1436.37 1436.97l0 6.67c6.87,3.63 7.9,4.63 16.67,6.67l-3.33 -26.67c10.66,-7.14 2.33,-5.47 16.67,-6.67 -7.2,-30.07 -30,12.71 -30,20z"/>
   <path class="fil0" d="M4486.97 1170.3c16.52,-4.41 30,-43.09 30,3.33l6.67 0c2.14,-8.94 3.33,-6.28 3.33,-13.33 0,0 -12.5,-30.55 -30.14,-6.8 -5.96,8.03 -7.14,6.63 -9.86,16.8z"/>
   <path class="fil0" d="M3803.63 1136.97c10.24,4.73 8.44,0.33 23.33,0 0.74,-8.87 3.62,-20.32 6.67,-26.67 -23.92,0.54 -6.75,-2.04 -22.46,17.54 -3.73,4.65 -3.83,3.59 -7.54,9.13z"/>
   <path class="fil0" d="M2073.63 806.96c0,8.94 4.75,12.82 10,16.67 0,-23.16 3.48,-20.48 11.31,-28.69 4.95,-5.19 2.64,-0.47 5.35,-7.98 -8.85,-4.24 -3.57,-3.04 -16.67,-3.33l-2.74 10.53c-1.39,3.11 -7.26,9.72 -7.26,12.8z"/>
   <path class="fil0" d="M1823.63 893.63c-10.13,6.78 -9.65,4.2 -10,20 14.8,-1.29 4.36,-1.73 8.44,-11.52 2.66,-6.38 7.81,-3.24 11.94,-21.97 5.84,-26.49 -22.3,-11.34 -10.38,13.49z"/>
   <path class="fil0" d="M3843.63 1200.3c-24.48,2.04 -2.36,2.27 -23.33,-3.33l-3.91 26.57c10.6,-2.61 23.84,-10.52 27.24,-23.24z"/>
   <path class="fil0" d="M3783.63 1146.97c0,17.07 5.9,-7.53 3.33,23.33 17.72,-4.73 21.66,-31.25 -3.33,-33.33l0 10z"/>
   <path class="fil0" d="M3870.3 1440.3c9.83,-5.2 10.66,-5.77 17.83,-18.83 5.43,-9.9 8.52,-13.92 8.83,-27.83 -11.44,7.67 -23.35,32.41 -26.67,46.67z"/>
   <path class="fil0" d="M4086.97 1166.97c1.49,17.44 -3.18,6.02 6.67,10 3.01,-6.08 2.57,-4.17 3.33,-13.33 -20.04,-1.67 -19.02,-21.59 -29.66,-18.02 -9.54,3.21 2.99,19.96 19.66,21.35z"/>
   <path class="fil0" d="M4343.64 923.63c7.6,-1.77 7.67,-2.59 16.67,-3.33 -3.89,9.41 -5.48,3.64 3.33,10 7.5,-8.98 -1.21,-7.17 3.33,-26.67l-16.67 0c-1.88,8.08 -3.49,13.37 -6.67,20z"/>
   <path class="fil0" d="M3746.97 1166.97c9.38,-2.5 4.62,0.5 10.26,-6.41 0.17,-0.21 5.66,-9.13 6.41,-10.26 -0.19,-0.13 -29.95,-29.43 -20.25,-0.28 2.94,8.83 3.25,1.69 3.59,16.95z"/>
   <path class="fil0" d="M3716.97 1133.63l-7.15 9.6c2.59,3.54 2.28,5.22 5.59,8.63 6.7,6.91 -2.85,3.52 11.56,5.1 3.9,-8.13 6.33,-18.3 0,-26.67 -3.68,3.41 5.83,3.33 -10,3.33z"/>
   <path class="fil0" d="M2240.3 1040.3l-33.33 -3.33c0.26,11.79 -0.63,17.65 11.87,15.79 10.09,-1.5 17.02,-6.41 21.46,-12.46z"/>
   <path class="fil0" d="M4033.64 1156.97c7.35,-5.39 8.64,-10.34 10,-26.67l-5.02 -4.98c-3.99,-3.05 -4.68,-3.1 -8.31,-5.02 0,15.5 -1.9,25.77 3.33,36.67z"/>
   <path class="fil0" d="M3906.97 1030.3c10.05,-2.69 8.39,-0.65 12.16,-11.17 1.85,-5.18 4.06,-16.84 4.5,-22.16 -16.29,4.35 -16.67,13.31 -16.67,33.33z"/>
   <path class="fil0" d="M4540.3 1263.63c26.32,0 10.48,1.39 20,-3.33 -4.13,-15.48 -5.25,-2.94 -6.67,-20 -9.56,6.4 -12.1,8.46 -13.33,23.33z"/>
   <path class="fil0" d="M4646.97 1170.3l10 0c0.8,-9.54 2.09,-12.11 3.89,-23.15 2.54,-15.6 6.91,-8.94 -3.89,-16.85 0,26.09 -8.28,19.3 -10,40z"/>
   <path class="fil0" d="M3556.97 1033.63l6.67 0c3.25,-13.94 6.28,-9.16 6.67,-26.67l-10 0c-4.44,19.07 -7.92,6.97 -3.33,26.67z"/>
   <path class="fil0" d="M4010.3 1016.97c0,6.06 -0.21,0.36 3.33,6.67 10.56,-7.74 16.05,-24.02 3.33,-33.33 -2.19,9.38 -6.67,16.94 -6.67,26.67z"/>
   <path class="fil0" d="M3623.63 853.63c2.44,2.12 1.31,2.37 7.61,5.72 6.07,3.22 5.81,2.75 12.39,4.28 16.54,-31.25 -2.85,-14 -20,-10z"/>
   <path class="fil0" d="M4466.97 1033.63c23.79,-0.53 10.59,-9.42 36.67,-10l0 -10c-11.69,0.97 -11.59,2 -19.43,7.24l-17.24 12.76z"/>
   <path class="fil0" d="M3716.97 1133.63c3.68,-3.41 -5.83,-3.33 10,-3.33 0,-13.54 -1.11,-10.73 3.33,-20 -13.52,3.61 -17.51,12.33 -23.33,23.33l10 0z"/>
   <path class="fil0" d="M1780.3 823.63l6.67 1.67c-1.83,9.52 -3.11,11.51 -3.33,21.67l6.67 0c0,-40.2 4.77,-13.87 6.67,-36.67 -11.17,5.91 -9.41,2.49 -16.67,13.33z"/>
   <path class="fil0" d="M-359.7 1436.97c10.38,-7.6 4.28,-3.76 10.06,-16.61 3.99,-8.87 5.57,-7.57 6.61,-20.06 -12.87,8.62 -16.67,15.31 -16.67,36.67z"/>
   <path class="fil0" d="M1030.3 1130.3c7.24,-4.84 10.43,-4.02 8.33,-14.59 -2.03,-10.21 -5.7,-14.38 -11.66,-18.74 0,17.71 2.24,20.18 3.33,33.33z"/>
   <path class="fil0" d="M4703.64 1040.3c10.8,-7.91 3.3,0.16 9.07,-14.26 2.88,-7.2 4.75,-13.14 7.59,-19.07 -16.29,4.35 -16.67,13.31 -16.67,33.33z"/>
   <path class="fil0" d="M1920.3 813.63c12.93,-3.45 16.31,-7.47 16.67,-23.33 -12.93,3.45 -16.31,7.47 -16.67,23.33z"/>
   <path class="fil0" d="M-429.7 1276.97l0 10c7.6,1.77 7.67,2.58 16.67,3.33l0 -16.67c-6.33,0.53 -11.67,1.39 -16.67,3.33z"/>
   <path class="fil0" d="M1350.3 1130.3l6.67 0c4.01,-17.22 8.63,-10.17 10,-26.67 -13.62,3.63 -15.34,10.67 -16.67,26.67z"/>
   <path class="fil0" d="M4480.3 893.63c11.04,-2.57 21.01,-8.94 26.67,-16.67 -12.44,-5.75 -23.14,3.48 -26.67,16.67z"/>
   <path class="fil0" d="M2240.3 816.96c0,-15.59 -0.97,-23.38 -10,-30 0,19.75 -5.12,25.96 10,30z"/>
   <path class="fil0" d="M3576.97 983.63c2.53,6.26 -2.28,5.59 16.67,10l3.74 -13.2c-8.35,-0.13 -16.67,-1.02 -20.41,3.2z"/>
   <path class="fil0" d="M3763.63 1056.97c7.99,-2.13 8.93,-3.1 15.52,-7.92 23.07,-16.87 -0.26,-20.93 -15.52,7.92z"/>
   <path class="fil0" d="M1886.97 893.63c9.55,-6.4 12.09,-8.46 13.33,-23.33l-10 0c-1.07,12.95 -3,8.69 -3.33,23.33z"/>
   <path class="fil0" d="M3660.3 883.63c9,-0.75 9.07,-1.56 16.67,-3.33 -1.11,-13.28 -1.35,-10.87 -10,-16.67 -1.42,17.05 -2.53,4.51 -6.67,20z"/>
   <path class="fil0" d="M1556.97 980.3c0,-5.21 0.59,-15.33 -0.03,-19.98 -1.33,-10.08 -2.44,-8.53 -6.64,-13.36 0,18.08 -3.98,25.54 6.67,33.33z"/>
   <path class="fil0" d="M4133.64 963.63c8.81,-6.46 9.67,-8.33 10,-23.33l-6.67 0c-2.91,12.5 -7.06,14.31 -3.33,23.33z"/>
   <path class="fil0" d="M3766.97 1230.3c-4.76,3.49 -7.65,6.86 -9.17,14.67 -2.85,14.67 -1.19,10.18 5.83,15.33 2.86,-6.46 -2.54,-2.03 -0.37,-10.61 0.85,-3.4 3.71,-1.79 3.71,-19.39z"/>
   <path class="fil0" d="M4643.64 906.96c0,9.39 1.44,6.17 6.67,10 0.3,-13.64 1.99,-14.5 6.67,-23.33 -0.89,0.1 -13.33,-3.2 -13.33,13.33z"/>
   <path class="fil0" d="M3786.97 1210.3l-6.67 0 0 -16.67c-7.86,5.76 -8.93,10.52 -10,23.33l16.67 -6.67z"/>
   <path class="fil0" d="M1573.63 946.96c11.65,-3.11 7.48,-1.26 13.33,-10 -6.87,-3.63 -7.9,-4.62 -16.67,-6.67 1.77,7.6 2.57,7.67 3.33,16.67z"/>
   <path class="fil0" d="M4433.64 1060.3c16.35,-3.81 13.28,-3.96 20,-16.67 -12.85,3 -16.67,4.19 -20,16.67z"/>
   <path class="fil0" d="M4046.97 916.96c11.79,-3.15 10.28,-3.55 13.33,-16.67 -14.09,1.17 -13.33,1.88 -13.33,16.67z"/>
   <polygon class="fil0" points="996.97,1130.3 1010.17,1126.56 1010.3,1116.97 996.97,1116.97 "/>
   <path class="fil0" d="M3766.97 850.3c0,9.39 1.44,6.17 6.67,10 11.71,-8.57 7.81,-9.21 -3.33,-16.67 -0.06,0.06 -3.33,6.22 -3.33,6.67z"/>
   <path class="fil0" d="M3783.63 910.3c5.25,-11.34 -1,-16.71 -13.33,-20 5.37,10.16 4.19,13.3 13.33,20z"/>
   <path class="fil0" d="M4693.64 1056.97c0,9.39 1.44,6.17 6.67,10 4.44,-9.27 3.33,-6.46 3.33,-20 -3.05,2.04 -10,5.43 -10,10z"/>
   <path class="fil0" d="M4283.64 983.63c12.26,-1.02 12.31,-1.07 13.33,-13.33 -11.5,0.96 -13.33,1.02 -13.33,13.33z"/>
   <path class="fil0" d="M4646.97 973.63c5,-1.2 10,-0.73 10,-6.67 0,-9.22 -2.57,-8.02 -10,-10l0 16.67z"/>
   <path class="fil0" d="M3246.97 1070.3c0,24 -2.28,10.24 -6.67,26.67 14.5,-1.21 10.43,3.28 11.46,-7.87l-4.8 -18.8z"/>
   <path class="fil0" d="M4610.3 1136.97c10.67,-5.65 12.05,-1.2 13.33,-16.67 -11.62,3.1 -12.2,3.07 -13.33,16.67z"/>
   <path class="fil0" d="M4083.64 926.96c0.97,0.43 -1.35,7.5 5.96,-0.41 4.79,-5.19 3.33,-4.44 4.04,-12.92 -20.81,5.56 -10.87,11.48 -10,13.33z"/>
   <path class="fil0" d="M2133.63 896.96c9.27,-4.44 6.46,-3.33 20,-3.33l0 -6.67c-11.84,0 -19.67,-2.01 -20,10z"/>
   <path class="fil0" d="M-743.04 1210.3l0 -16.67c-7.95,4.21 -8.06,1.04 -9.48,7.46 -1.85,8.37 3.29,7.55 9.48,9.2z"/>
   <path class="fil0" d="M2453.63 860.3c-0.38,-17.13 3.02,-9.57 -6.67,-16.67l-3.74 13.2c4.9,2.65 4.09,1.95 10.41,3.46z"/>
   <path class="fil0" d="M1086.97 940.3c10.13,-6.78 9.65,-4.2 10,-20l-6.67 0c-0.22,10.16 -1.5,12.15 -3.33,20z"/>
   <path class="fil0" d="M1440.3 630.3c13.03,-1.08 10.13,2.02 13.33,-10l-13.33 0 0 10z"/>
   <path class="fil0" d="M-256.37 960.3c13.03,-1.08 10.12,2.02 13.33,-10l-13.33 0 0 10z"/>
   <path class="fil0" d="M3920.3 1126.97c4.57,-3.06 15.82,-9.09 10.48,-14.43 -7.91,-7.91 -9.89,7.39 -10.48,14.43z"/>
   <path class="fil0" d="M1209.14 1080.91l4.91 -13.81c-6.49,-3.14 -4.58,-2.7 -13.74,-3.46l8.84 17.28z"/>
   <path class="fil0" d="M2030.3 773.63c-7.6,1.77 -7.67,2.58 -16.67,3.33 5.58,20.9 15.79,-0.91 16.67,-3.33z"/>
   <path class="fil0" d="M1296.97 786.96c0.13,-0.28 12.74,-3.93 -10,-10 1.28,11.75 -2.27,5.25 3.45,10.17 8.3,7.14 6.02,0.07 6.55,-0.17z"/>
   <path class="fil0" d="M3320.3 986.97l16.67 0c-2.52,-4.49 -1.82,-3.69 -3.33,-10 -9.9,2.65 -8.63,1.31 -13.33,10z"/>
   <polygon class="fil0" points="896.3,1069.63 902.97,1077.63 910.97,1070.97 904.3,1062.97 "/>
   <path class="fil0" d="M1743.63 803.63c0,8.91 4.81,9.86 10,13.33 -1.83,-7.85 -3.11,-9.84 -3.33,-20 -2.96,1.67 -6.67,2.17 -6.67,6.67z"/>
   <path class="fil0" d="M4640.3 990.3c2.97,-1.67 6.67,-2.17 6.67,-6.67 0,-9.22 -2.57,-8.02 -10,-10 1.77,7.6 2.57,7.67 3.33,16.67z"/>
   <path class="fil0" d="M1366.97 1046.97c-1.31,-5.64 -3.17,-18.41 -10.53,-11.06 -6,6 4.26,9.38 10.53,11.06z"/>
   <path class="fil0" d="M3706.97 936.96l-10 26.67c12.99,-8.7 10,-6.43 10,-26.67z"/>
   <path class="fil0" d="M1680.3 780.3c9.69,-7.09 6.29,0.46 6.67,-16.67l-6.67 0 0 16.67z"/>
   <path class="fil0" d="M1876.97 850.3l6.67 0c-0.38,-17.13 3.02,-9.57 -6.67,-16.67l0 16.67z"/>
   <path class="fil0" d="M1836.97 850.3c7.07,-8.13 12.94,-11 0,-20l0 20z"/>
   <path class="fil0" d="M1186.97 770.3c5.05,-10.92 7.01,-9.68 -6.67,-13.33 1.24,14.89 -3.65,6.17 6.67,13.33z"/>
   <path class="fil0" d="M2776.97 1100.3c12.02,-3.21 8.92,-0.3 10,-13.33 -14.03,7.43 -8.66,-2.4 -10,13.33z"/>
   <path class="fil0" d="M3900.3 973.63c7.5,10.24 -2.15,5.38 13.33,6.67 -2.09,-7.84 -6.43,-14.52 -13.33,-6.67z"/>
   <path class="fil0" d="M2406.97 896.96c8.14,3.37 2.69,2.26 13.33,0l0 -6.67c-7.84,0.65 -12.13,-0.35 -13.33,6.67z"/>
   <path class="fil0" d="M1026.97 1073.63c-3.08,-11.52 -1.81,-10.26 -13.33,-13.33 2.43,6.72 -0.18,3.95 4.69,8.65 4.83,4.65 1.88,2.24 8.65,4.69z"/>
   <path class="fil0" d="M2410.3 856.96c13.03,-1.08 10.12,2.02 13.33,-10 -15.63,1.71 -6.29,0.54 -13.33,10z"/>
   <path class="fil0" d="M3556.97 1083.63c5.81,-12.57 6.22,-6.34 -3.33,-13.33 -5.81,12.57 -6.21,6.34 3.33,13.33z"/>
   <path class="fil0" d="M4063.64 1186.97l10 0 0 -10c-7.61,2.03 -9.75,0.76 -10,10z"/>
   <path class="fil0" d="M4493.64 913.63l10 0 0 -10c-7.61,2.03 -9.75,0.76 -10,10z"/>
   <path class="fil0" d="M2393.63 753.63c0.75,-9 1.56,-9.07 3.33,-16.67 -11.14,7.46 -15.04,8.09 -3.33,16.67z"/>
   <path class="fil0" d="M3070.3 920.3c10.04,-2.68 7.32,0.04 10,-10l-10 0 0 10z"/>
   <path class="fil0" d="M967.37 1226.84c10.22,-7.66 10.85,-9.31 -3.74,-13.2l3.74 13.2z"/>
   <path class="fil0" d="M1260.3 826.96c-3.21,-12.02 -0.3,-8.91 -13.33,-10 5.85,8.74 1.69,6.89 13.33,10z"/>
   <path class="fil0" d="M1400.3 1006.97l6.67 0 0 -13.33c-8.53,6.25 -6.67,-1.15 -6.67,13.33z"/>
   <path class="fil0" d="M2076.97 716.96c0.44,-0.69 1.06,-2.59 1.19,-2.15 0.13,0.45 0.9,-1.72 1.07,-2.26l4.41 -18.92c-10.11,7.41 -6.67,5.76 -6.67,23.33z"/>
   <path class="fil0" d="M2373.63 883.63l0 -13.33 -6.67 0c1.24,14.89 -3.65,6.17 6.67,13.33z"/>
   <path class="fil0" d="M1450.3 996.97l0 -13.33 -6.67 0c1.24,14.89 -3.65,6.17 6.67,13.33z"/>
   <path class="fil0" d="M1213.63 996.97l10 0 0 -10c-13.51,7.15 -7.13,-1.13 -10,10z"/>
   <path class="fil0" d="M4413.64 846.96l0 -6.67 -13.33 0c7.53,10.28 -2.17,5.35 13.33,6.67z"/>
   <path class="fil0" d="M4750.3 890.3l3.33 -13.33c-10.61,2.83 -11.84,1.98 -7.06,9.9l3.72 3.43z"/>
   <path class="fil0" d="M2290.3 863.63c10.91,-3.95 2.42,4.32 10,-10l-10 0 0 10z"/>
   <path class="fil0" d="M2270.3 796.96l10 0c-2.33,-9.74 0.43,-4.8 -6.67,-10 -2.28,4.07 -3.33,3.57 -3.33,10z"/>
   <path class="fil0" d="M3560.3 873.63c9.72,-7.13 4.07,-2.13 10,-13.33 -10.36,2.77 -10,0.48 -10,13.33z"/>
   <polygon class="fil0" points="3923.63,986.97 3930.3,986.97 3930.3,976.96 3923.63,976.96 "/>
   <polygon class="fil0" points="1373.63,1016.97 1383.63,1016.97 1383.63,1010.3 1373.63,1010.3 "/>
   <path class="fil0" d="M1320.3 1023.63c10.04,-2.68 7.32,0.04 10,-10 -7.61,2.03 -9.74,0.76 -10,10z"/>
   <path class="fil0" d="M3483.63 1410.3c10.04,-2.68 7.32,0.04 10,-10 -7.61,2.04 -9.74,0.76 -10,10z"/>
   <path class="fil0" d="M1756.97 846.96c10.24,-7.5 5.38,2.15 6.67,-13.33 -8.53,6.25 -6.67,-1.15 -6.67,13.33z"/>
   <path class="fil0" d="M3936.97 1290.3c2.2,-2.54 2.22,-0.93 4.38,-5.62 3.13,-6.78 0.85,-1.56 2.28,-7.71l-6.67 0 0 13.33z"/>
   <path class="fil0" d="M3586.97 856.96c10.91,-3.94 2.42,4.33 10,-10 -7.61,2.04 -9.74,0.76 -10,10z"/>
   <path class="fil0" d="M-346.37 1516.97l10 0 0 -6.67c-5.85,1.4 -8.93,0.42 -10,6.67z"/>
   <path class="fil0" d="M1206.97 833.63l10 0 0 -6.67c-5.85,1.4 -8.93,0.42 -10,6.67z"/>
   <path class="fil0" d="M1426.97 736.96l10 0 0 -6.67c-5.85,1.4 -8.93,0.42 -10,6.67z"/>
   <path class="fil0" d="M2120.3 760.3c6.67,-1.78 1.35,4.27 6.84,-2.67 2.96,-3.74 -0.27,-8.93 -4.16,-4.16 -3.81,4.66 -2.32,-6.11 -2.68,6.83z"/>
   <path class="fil0" d="M3813.63 1170.3c-5.54,1.48 -12.94,1.97 -7.58,7.33 5.82,5.82 3.22,0.92 7.58,-7.33z"/>
   <path class="fil0" d="M1363.63 1086.97c-0.78,1.76 -10.57,2.06 6.67,6.67 -1.78,-6.67 4.27,-1.35 -2.67,-6.84 -5.87,-4.64 0.48,-1.81 -3.99,0.17z"/>
   <path class="fil0" d="M2180.3 1026.97c9.75,-2.33 4.8,0.43 10,-6.67l-10 0 0 6.67z"/>
   <path class="fil0" d="M800.3 1120.3c9.75,-2.33 4.8,0.43 10,-6.67l-10 0 0 6.67z"/>
   <path class="fil0" d="M3376.97 1236.97l6.67 0c-2.33,-9.75 0.43,-4.8 -6.67,-10l0 10z"/>
   <path class="fil0" d="M1870.3 883.63c7.37,-5.12 4.15,-0.55 6.67,-10l-6.67 0 0 10z"/>
   <path class="fil0" d="M3343.63 866.96c7.37,-5.12 4.15,-0.54 6.67,-10l-6.67 0 0 10z"/>
   <path class="fil0" d="M2390.3 843.63l10 0c-5.12,-7.37 -0.55,-4.14 -10,-6.67l0 6.67z"/>
   <path class="fil0" d="M3650.3 1003.63c-1.52,3.42 -6.18,-0.92 -0.17,3.99 4.58,3.74 0.28,0.93 6.83,2.67 -1.78,-6.67 4.27,-1.34 -2.67,-6.83 -5.87,-4.65 0.48,-1.81 -3.99,0.17z"/>
   <polygon class="fil0" points="1433.63,810.3 1436.97,810.3 1436.97,796.96 1433.63,796.96 "/>
   <polygon class="fil0" points="880.3,1166.97 883.63,1166.97 883.63,1153.63 880.3,1153.63 "/>
   <path class="fil0" d="M3950.3 1260.3c-10.91,3.95 -2.42,-4.32 -10,10 10.9,-3.94 2.42,4.33 10,-10z"/>
   <path class="fil0" d="M3786.97 1126.97l0 -10c-9.94,7.18 -10.75,2.53 0,10z"/>
   <path class="fil0" d="M2183.63 1013.63l10 0c-3.19,-4.41 -8.55,-10.47 -10,0z"/>
   <path class="fil0" d="M4470.3 1100.3c9.74,-2.33 4.8,0.43 10,-6.67 -5.85,1.4 -8.93,0.42 -10,6.67z"/>
   <path class="fil0" d="M4513.64 1096.97c9.74,-2.33 4.8,0.43 10,-6.67 -5.85,1.4 -8.93,0.42 -10,6.67z"/>
   <polygon class="fil0" points="3766.97,1193.63 3770.3,1193.63 3770.3,1183.63 3766.97,1183.63 "/>
   <polygon class="fil0" points="3656.97,1206.97 3660.3,1206.97 3660.3,1196.97 3656.97,1196.97 "/>
   <polygon class="fil0" points="3686.97,1316.97 3690.3,1316.97 3690.3,1306.97 3686.97,1306.97 "/>
   <polygon class="fil0" points="3860.3,1036.97 3863.63,1036.97 3863.63,1026.97 3860.3,1026.97 "/>
   <path class="fil0" d="M3652.92 1022.92c10.76,-1.96 8.03,0.76 10.71,-9.28l-10.71 9.28z"/>
   <path class="fil0" d="M3766.97 1230.3c3.38,-4.47 3.33,7.01 3.33,-10l-3.33 0 0 10z"/>
   <path class="fil0" d="M3710.3 933.63c7.17,-4.98 4.39,-0.49 6.67,-10 -7.37,5.12 -4.14,0.55 -6.67,10z"/>
   <path class="fil0" d="M1276.97 786.96c-5.12,-7.37 -0.55,-4.14 -10,-6.67 5.25,7.56 0.63,3.89 10,6.67z"/>
   <path class="fil0" d="M4746.97 1156.97c0.7,3.8 7.33,7.29 4.49,0.67 -1.2,-2.8 -6.09,-9.33 -4.49,-0.67z"/>
   <path class="fil0" d="M1060.3 1066.97c0.7,3.8 7.33,7.29 4.49,0.67 -1.2,-2.8 -6.09,-9.33 -4.49,-0.67z"/>
   <path class="fil0" d="M730.3 1063.63c0.7,3.8 7.33,7.29 4.49,0.67 -1.2,-2.79 -6.09,-9.33 -4.49,-0.67z"/>
   <path class="fil0" d="M4683.64 1086.97c0.7,3.8 7.33,7.29 4.48,0.67 -1.2,-2.8 -6.09,-9.33 -4.48,-0.67z"/>
   <path class="fil0" d="M1443.63 643.63c0.7,3.8 7.33,7.29 4.48,0.67 -1.2,-2.79 -6.08,-9.33 -4.48,-0.67z"/>
   <path class="fil0" d="M1850.3 866.96c10.55,-3.93 4.78,7.24 6.67,-10l-6.67 10z"/>
   <path class="fil0" d="M2073.63 730.3c0.44,-0.67 1.25,-2.39 1.35,-1.98 0.11,0.44 0.98,-1.7 1.1,-2.24 0.95,-4.48 0.89,-4.36 0.89,-9.12 -0.44,0.67 -1.25,0.8 -1.35,1.98 -0.11,1.23 -0.98,1.7 -1.1,2.24 -0.95,4.48 -0.89,4.36 -0.89,9.11z"/>
   <path class="fil0" d="M2150.3 790.3l6.67 -10c-8.76,3.27 -4.95,-0.06 -6.67,10z"/>
   <path class="fil0" d="M3596.97 1146.97c3.43,3.42 12.06,-4.8 3.87,-1.8 -0.08,0.03 -9.46,-3.8 -3.87,1.8z"/>
   <path class="fil0" d="M3886.97 960.3c3.43,3.43 12.06,-4.8 3.87,-1.8 -0.08,0.03 -9.46,-3.8 -3.87,1.8z"/>
   <path class="fil0" d="M3153.63 1250.3c3.43,3.43 12.06,-4.8 3.87,-1.8 -0.08,0.03 -9.46,-3.8 -3.87,1.8z"/>
   <path class="fil0" d="M3233.63 1293.63c3.43,3.43 12.06,-4.8 3.87,-1.8 -0.08,0.03 -9.46,-3.8 -3.87,1.8z"/>
   <path class="fil0" d="M1233.63 1106.97c3.43,3.42 12.06,-4.8 3.87,-1.8 -0.08,0.03 -9.46,-3.8 -3.87,1.8z"/>
   <path class="fil0" d="M836.97 1146.97c3.42,3.42 12.06,-4.8 3.86,-1.8 -0.08,0.03 -9.46,-3.8 -3.86,1.8z"/>
   <path class="fil0" d="M3760.3 1173.63c3.42,3.43 12.06,-4.8 3.87,-1.8 -0.08,0.03 -9.46,-3.8 -3.87,1.8z"/>
   <path class="fil0" d="M3650.3 990.3c3.42,3.43 12.06,-4.8 3.87,-1.8 -0.08,0.03 -9.46,-3.8 -3.87,1.8z"/>
   <path class="fil0" d="M893.63 943.63c3.42,3.42 12.06,-4.8 3.87,-1.8 -0.08,0.03 -9.46,-3.8 -3.87,1.8z"/>
   <path class="fil0" d="M4600.3 1680.3c3.43,3.43 12.06,-4.8 3.87,-1.8 -0.08,0.03 -9.46,-3.8 -3.87,1.8z"/>
   <path class="fil0" d="M4460.3 866.96c3.43,3.43 12.06,-4.8 3.87,-1.8 -0.08,0.03 -9.46,-3.8 -3.87,1.8z"/>
   <path class="fil0" d="M4036.97 1023.63c-1.64,8.88 6.66,-0.57 4.22,-1.22 -6.69,-1.77 -3.29,-3.85 -4.22,1.22z"/>
   <path class="fil0" d="M3760.3 1303.63c-1.32,7.15 4.79,2.26 4.48,-0.67 0,-0.02 -0.23,-0.54 -0.26,-0.54 -6.69,-1.77 -3.29,-3.85 -4.22,1.22z"/>
   <path class="fil0" d="M4086.97 1200.3c0,3.92 7.17,7.51 5.16,0 -2.02,-7.53 8.48,-0.09 -1.54,-0.99 -4.2,-0.37 -3.62,-5.79 -3.62,0.99z"/>
   <path class="fil0" d="M3903.63 1373.63c0,3.92 7.17,7.51 5.16,0 -2.02,-7.53 8.48,-0.09 -1.54,-0.99 -4.2,-0.38 -3.62,-5.79 -3.62,0.99z"/>
   <path class="fil0" d="M1030.3 1033.63c0,3.92 7.17,7.51 5.16,0 -2.02,-7.53 8.48,-0.09 -1.54,-0.99 -4.2,-0.38 -3.62,-5.79 -3.62,0.99z"/>
   <path class="fil0" d="M1780.3 870.3c0,3.92 7.17,7.51 5.16,0 -2.02,-7.53 8.48,-0.09 -1.54,-0.99 -4.2,-0.37 -3.62,-5.79 -3.62,0.99z"/>
   <path class="fil0" d="M3836.97 966.96c0,3.92 7.17,7.51 5.16,0 -2.02,-7.53 8.48,-0.09 -1.54,-0.98 -4.2,-0.38 -3.62,-5.79 -3.62,0.98z"/>
   <path class="fil0" d="M1566.97 923.63c0,3.92 7.17,7.51 5.16,0 -2.02,-7.53 8.48,-0.09 -1.54,-0.99 -4.2,-0.38 -3.62,-5.79 -3.62,0.99z"/>
   <path class="fil0" d="M3840.3 1000.3c0,3.92 7.17,7.51 5.16,0 -2.02,-7.53 8.48,-0.09 -1.54,-0.99 -4.2,-0.37 -3.62,-5.79 -3.62,0.99z"/>
   <path class="fil0" d="M1186.97 930.3c0,3.92 7.17,7.51 5.16,0 -2.02,-7.53 8.48,-0.09 -1.54,-0.99 -4.2,-0.37 -3.62,-5.79 -3.62,0.99z"/>
   <path class="fil0" d="M4033.64 963.63c-1.64,8.88 6.66,-0.57 4.22,-1.22 -0.05,-0.01 -0.85,-0.09 -0.93,-0.09 -6.24,0.39 -2.03,-5.58 -3.3,1.31z"/>
   <path class="fil0" d="M3986.97 1166.97c-1.64,8.88 6.66,-0.57 4.22,-1.22 -0.05,-0.01 -0.84,-0.09 -0.93,-0.09 -6.24,0.39 -2.02,-5.58 -3.3,1.31z"/>
   <path class="fil0" d="M-1399.7 1400.3c-1.71,9.27 7.95,-1.6 3.3,-1.31 -6.24,0.39 -2.03,-5.58 -3.3,1.31z"/>
   <path class="fil0" d="M2216.97 996.97c-1.32,7.15 4.79,2.25 4.48,-0.68 0,-0.02 -0.23,-0.54 -0.26,-0.54 -0.05,-0.01 -0.85,-0.09 -0.93,-0.09 -6.24,0.39 -2.03,-5.58 -3.3,1.31z"/>
   <path class="fil0" d="M1253.63 766.96c0.14,1.1 3.68,0.75 3.97,0.64 0.83,-0.31 5.79,7.71 1.44,-0.9 -0.09,-0.19 -6.22,-6.17 -5.42,0.26z"/>
   <path class="fil0" d="M1413.63 1053.63c0.14,1.1 3.68,0.74 3.97,0.63 0.83,-0.31 5.79,7.72 1.45,-0.89 -0.1,-0.19 -6.22,-6.17 -5.42,0.26z"/>
   <path class="fil0" d="M1626.97 966.96c0.13,1.1 3.68,0.75 3.97,0.64 0.83,-0.31 5.79,7.71 1.44,-0.89 -0.09,-0.19 -6.22,-6.17 -5.42,0.26z"/>
   <path class="fil0" d="M3880.3 1183.63c0.14,1.1 3.68,0.74 3.97,0.63 0.83,-0.31 5.79,7.72 1.44,-0.89 -0.09,-0.19 -6.22,-6.17 -5.42,0.26z"/>
   <path class="fil0" d="M4546.97 1173.63c-1.32,7.15 4.79,2.25 4.49,-0.67l-1.19 -0.64c-6.24,0.39 -2.02,-5.58 -3.3,1.31z"/>
   <path class="fil0" d="M4450.3 1036.97c-1.32,7.15 4.79,2.25 4.48,-0.68l-1.19 -0.63c-6.24,0.39 -2.03,-5.58 -3.3,1.31z"/>
   <path class="fil0" d="M3673.63 1140.3c0,8.28 5.33,0.85 2.07,0 -0.04,-0.01 -2.07,-9.46 -2.07,0z"/>
   <path class="fil0" d="M2220.3 1066.97c0,8.28 5.33,0.85 2.07,0 -0.04,-0.01 -2.07,-9.46 -2.07,0z"/>
   <path class="fil0" d="M3603.63 953.63c0,8.28 5.33,0.85 2.07,0 -0.04,-0.01 -2.07,-9.46 -2.07,0z"/>
   <path class="fil0" d="M3833.63 1103.63c0,8.28 5.33,0.85 2.07,0 -0.04,-0.01 -2.07,-9.46 -2.07,0z"/>
   <path class="fil0" d="M3596.97 970.3c0,8.28 5.33,0.85 2.07,0 -0.04,-0.01 -2.07,-9.46 -2.07,0z"/>
   <path class="fil0" d="M2433.63 730.3c0,8.28 5.33,0.85 2.07,0 -0.04,-0.01 -2.07,-9.46 -2.07,0z"/>
   <path class="fil0" d="M1833.63 856.96c0,8.28 5.33,0.85 2.07,0 -0.04,-0.01 -2.07,-9.46 -2.07,0z"/>
   <path class="fil0" d="M4590.3 1206.97c0,8.28 5.33,0.85 2.07,0 -0.04,-0.01 -2.07,-9.46 -2.07,0z"/>
   <path class="fil0" d="M-1413.04 1453.63c0,8.28 5.33,0.85 2.07,0 -0.04,-0.01 -2.07,-9.46 -2.07,0z"/>
   <path class="fil0" d="M1496.97 916.96c0,8.28 5.33,0.85 2.07,0 -0.04,-0.01 -2.07,-9.46 -2.07,0z"/>
   <path class="fil0" d="M4253.64 1230.3c0,8.28 5.33,0.85 2.07,0 -0.04,-0.01 -2.07,-9.46 -2.07,0z"/>
   <path class="fil0" d="M1156.97 983.63c0,8.28 5.33,0.85 2.07,0 -0.04,-0.01 -2.07,-9.46 -2.07,0z"/>
   <path class="fil0" d="M773.63 1256.97c-2.16,-8.15 1.48,-4.51 -6.67,-6.67l6.67 6.67z"/>
   <polygon class="fil0" points="4693.64,1073.63 4690.3,1073.63 4693.08,1077.52 "/>
   <polygon class="fil0" points="710.3,1226.97 710.3,1223.63 706.41,1226.41 "/>
   <polygon class="fil0" points="3523.63,1116.97 3526.97,1116.97 3524.19,1113.08 "/>
   <polygon class="fil0" points="2073.63,730.3 2070.3,730.3 2073.08,734.19 "/>
   <polygon class="fil0" points="4750.3,890.3 4746.97,890.3 4749.75,894.19 "/>
   <polygon class="fil0" points="3406.97,1163.63 3406.97,1160.3 3403.08,1163.08 "/>
   <polygon class="fil0" points="3786.97,1210.3 3790.3,1210.3 3787.52,1206.41 "/>
   <polygon class="fil0" points="1146.97,903.63 1143.63,903.63 1146.41,907.52 "/>
   <polygon class="fil0" points="1060.3,973.63 1063.63,973.63 1060.85,969.74 "/>
   <polygon class="fil0" points="4693.64,1073.63 4696.97,1073.63 4694.19,1069.74 "/>
   <polygon class="fil0" points="1853.63,923.63 1853.63,926.96 1857.52,924.19 "/>
   <polygon class="fil0" points="3523.63,1116.97 3520.3,1116.97 3523.08,1120.85 "/>
   <path class="fil0" d="M1016.97 853.63c0.33,0.33 0.99,-1.46 0.99,-1 0,0.19 0.42,-0.42 0.41,-0.41 -0.01,0.02 -0.38,0.38 -0.41,0.41 -0.07,0.07 -1.33,0.67 -0.99,1z"/>
   <path class="fil0" d="M1193.63 943.63c0.33,0.33 0.99,-1.46 0.99,-1 0,0.19 0.42,-0.42 0.41,-0.41 -0.02,0.02 -0.38,0.38 -0.41,0.41 -0.07,0.07 -1.33,0.67 -1,1z"/>
   <path class="fil0" d="M4756.97 1350.3c0.33,0.33 0.99,-1.46 1,-0.99l0 0c-0.07,0.06 -1.33,0.66 -1,0.99z"/>
   <path class="fil0" d="M2030.3 660.3c0.33,0.33 0.99,-1.46 1,-1l0 0c-0.07,0.06 -1.33,0.66 -1,0.99z"/>
   <path class="fil0" d="M1146.97 710.3c0.33,0.33 0.99,-1.46 0.99,-1l0 0c-0.06,0.06 -1.33,0.66 -0.99,0.99z"/>
   <path class="fil0" d="M1333.63 676.96c0.33,0.33 0.99,-1.46 0.99,-0.99l0 0c-0.07,0.06 -1.33,0.66 -1,0.99z"/>
   <path class="fil0" d="M3896.97 1386.97c0.33,0.33 0.99,-1.46 1,-1l0 0c-0.07,0.07 -1.33,0.66 -1,1z"/>
   <path class="fil0" d="M4036.97 1246.97c0.33,0.33 0.99,-1.46 1,-1l0 0c-0.07,0.07 -1.33,0.66 -1,1z"/>
   <path class="fil0" d="M4446.97 1090.3c0.33,0.33 0.99,-1.46 1,-0.99l0 0c-0.07,0.06 -1.33,0.66 -1,0.99z"/>
   <path class="fil0" d="M4666.97 946.96c0.33,0.33 0.99,-1.46 1,-0.99l0 0c-0.07,0.07 -1.33,0.66 -1,0.99z"/>
   <path class="fil0" d="M1513.63 1070.3c0.33,0.33 0.99,-1.46 0.99,-0.99l0 0c-0.07,0.06 -1.33,0.66 -1,0.99z"/>
   <path class="fil0" d="M3346.97 1380.3c0.33,0.33 0.99,-1.46 0.99,-0.99l0 0c-0.07,0.06 -1.33,0.66 -1,0.99z"/>
   <path class="fil0" d="M4366.97 1083.63c0.33,0.33 0.99,-1.46 1,-1l0 0c-0.07,0.06 -1.33,0.66 -1,0.99z"/>
   <path class="fil0" d="M1733.63 923.63c0.33,0.33 0.99,-1.46 0.99,-1l0 0c-0.07,0.07 -1.33,0.67 -1,1z"/>
   <path class="fil0" d="M3536.97 983.63c0.33,0.33 0.99,-1.46 0.99,-1l0 0c-0.07,0.07 -1.33,0.67 -1,1z"/>
   <path class="fil0" d="M3656.97 863.63c0.33,0.33 0.99,-1.46 0.99,-1l0 0c-0.07,0.07 -1.33,0.67 -1,1z"/>
   <path class="fil0" d="M3396.97 1263.63c0.33,0.33 0.99,-1.46 0.99,-1l0 0c-0.07,0.06 -1.33,0.66 -1,0.99z"/>
   <path class="fil0" d="M4630.3 1203.63c0.33,0.33 0.99,-1.46 0.99,-1l0 0c-0.07,0.06 -1.33,0.66 -1,0.99z"/>
   <path class="fil0" d="M3756.97 1063.63c0.33,0.33 0.99,-1.46 0.99,-1l0 0c-0.07,0.06 -1.33,0.66 -1,0.99z"/>
   <path class="fil0" d="M1400.3 610.3c-0.22,0.22 -0.09,0.61 -0.07,0.92 0.01,0.2 0.13,0.56 0.15,0.56 3.09,-0.28 -4.66,6.36 1.04,-0.35l-1.13 -1.13z"/>
   <path class="fil0" d="M4053.64 1116.97l0.99 -1c-0.07,0.07 -1.33,0.66 -0.99,1z"/>
   <path class="fil0" d="M2390.3 930.3l0.99 -0.99c-0.07,0.06 -1.33,0.66 -0.99,0.99z"/>
   <path class="fil0" d="M3293.63 1206.97l1 -1c-0.07,0.07 -1.33,0.66 -1,1z"/>
   <path class="fil0" d="M570.3 1126.97l1 -1c-0.07,0.07 -1.33,0.66 -1,1z"/>
   <path class="fil0" d="M3140.3 1306.97l0.99 -1c-0.06,0.07 -1.33,0.66 -0.99,1z"/>
   <path class="fil0" d="M4606.97 900.3l1 -0.99c-0.07,0.06 -1.33,0.66 -1,0.99z"/>
   <path class="fil0" d="M-523.04 1150.3l1 -0.99c-0.07,0.06 -1.33,0.66 -1,0.99z"/>
   <path class="fil0" d="M2426.97 706.96l1 -0.99c-0.07,0.06 -1.33,0.66 -1,0.99z"/>
   <path class="fil0" d="M1110.3 990.3l1 -0.99c-0.07,0.06 -1.33,0.66 -1,0.99z"/>
   <path class="fil0" d="M3843.63 1043.63l1 -0.99c-0.07,0.06 -1.33,0.66 -1,0.99z"/>
   <path class="fil0" d="M3293.63 1043.63l1 -0.99c-0.07,0.06 -1.33,0.66 -1,0.99z"/>
   <path class="fil0" d="M-1406.37 1433.63l1 -0.99c-0.07,0.06 -1.33,0.66 -1,0.99z"/>
   <path class="fil0" d="M3783.63 1070.3l1 -0.99c-0.07,0.06 -1.33,0.66 -1,0.99z"/>
   <path class="fil0" d="M3743.63 1233.63l1 -0.99c-0.07,0.06 -1.33,0.66 -1,0.99z"/>
   <path class="fil0" d="M2823.63 1073.63l1 -0.99c-0.07,0.06 -1.33,0.66 -1,0.99z"/>
   <path class="fil0" d="M3326.97 910.3l1 -0.99c-0.07,0.06 -1.33,0.66 -1,0.99z"/>
   <path class="fil0" d="M3363.63 1273.63l1 -0.99c-0.07,0.06 -1.33,0.66 -1,0.99z"/>
   <path class="fil0" d="M3333.63 1393.63l1 -0.99c-0.07,0.06 -1.33,0.66 -1,0.99z"/>
   <path class="fil0" d="M2313.63 853.63l1 -1c-0.07,0.07 -1.33,0.67 -1,1z"/>
   <path class="fil0" d="M4626.97 943.63l1 -1c-0.07,0.07 -1.33,0.67 -1,1z"/>
   <path class="fil0" d="M1260.3 793.63l1 -1c-0.07,0.07 -1.33,0.67 -1,1z"/>
   <path class="fil0" d="M2133.63 873.63l1 -1c-0.07,0.07 -1.33,0.67 -1,1z"/>
   <path class="fil0" d="M-363.04 1476.97l1 -1c-0.07,0.07 -1.33,0.67 -1,1z"/>
   <path class="fil0" d="M-1369.7 1406.97l0.99 -1c-0.06,0.07 -1.32,0.66 -0.99,1z"/>
   <path class="fil0" d="M3770.3 1036.97l0.99 -1c-0.06,0.07 -1.32,0.66 -0.99,1z"/>
   <path class="fil0" d="M3620.3 980.3l0.99 -0.99c-0.06,0.06 -1.32,0.66 -0.99,0.99z"/>
   <path class="fil0" d="M3790.3 1200.3l0.99 -0.99c-0.06,0.06 -1.32,0.66 -0.99,0.99z"/>
   <path class="fil0" d="M3830.3 1173.63l0.99 -0.99c-0.06,0.06 -1.32,0.66 -0.99,0.99z"/>
   <path class="fil0" d="M3700.3 1163.63l0.99 -0.99c-0.06,0.06 -1.32,0.66 -0.99,0.99z"/>
   <path class="fil0" d="M-1449.7 1480.3l0.99 -0.99c-0.06,0.06 -1.32,0.66 -0.99,0.99z"/>
   <path class="fil0" d="M-1409.7 1480.3l0.99 -0.99c-0.06,0.06 -1.32,0.66 -0.99,0.99z"/>
   <path class="fil0" d="M3530.3 1143.63l0.99 -0.99c-0.06,0.06 -1.32,0.66 -0.99,0.99z"/>
   <path class="fil0" d="M3533.63 956.96l1 -0.99c-0.07,0.07 -1.33,0.66 -1,0.99z"/>
   <path class="fil0" d="M2166.97 793.63l0.99 -1c-0.06,0.07 -1.32,0.67 -0.99,1z"/>
   <path class="fil0" d="M4623.64 1673.63c-0.22,0.22 -0.09,0.61 -0.07,0.92l0.07 -0.92z"/>
   <path class="fil0" d="M1426.97 856.96c-0.22,0.22 -0.09,0.61 -0.07,0.92l0.07 -0.92z"/>
   <path class="fil0" d="M4160.3 1170.3c-0.22,0.22 -0.09,0.61 -0.07,0.92l0.07 -0.92z"/>
   <line class="fil0" x1="4080.3" y1="1130.3" x2="4080.3" y2= "1130.3" />
   <polygon class="fil0" points="3710.3,933.63 3706.97,936.96 "/>
   <polygon class="fil0" points="1106.97,940.3 1110.8,933.8 "/>
   <line class="fil0" x1="3613.63" y1="1190.3" x2="3613.63" y2= "1190.3" />
   <line class="fil0" x1="4093.64" y1="1050.3" x2="4093.64" y2= "1050.3" />
   <polygon class="fil0" points="3843.63,1200.3 3847.47,1193.8 "/>
  </g>
 </g>
</svg>
